<?xml version="1.0" encoding="utf-8" standalone="no"?>
<!DOCTYPE svg PUBLIC "-//W3C//DTD SVG 1.1//EN"
  "http://www.w3.org/Graphics/SVG/1.1/DTD/svg11.dtd">
<svg xmlns:xlink="http://www.w3.org/1999/xlink" width="460.8pt" height="345.6pt" viewBox="0 0 460.8 345.6" xmlns="http://www.w3.org/2000/svg" version="1.1">
 <metadata>
  <rdf:RDF xmlns:dc="http://purl.org/dc/elements/1.1/" xmlns:cc="http://creativecommons.org/ns#" xmlns:rdf="http://www.w3.org/1999/02/22-rdf-syntax-ns#">
   <cc:Work>
    <dc:type rdf:resource="http://purl.org/dc/dcmitype/StillImage"/>
    <dc:date>2023-08-19T11:09:04.171134</dc:date>
    <dc:format>image/svg+xml</dc:format>
    <dc:creator>
     <cc:Agent>
      <dc:title>Matplotlib v3.5.3, https://matplotlib.org/</dc:title>
     </cc:Agent>
    </dc:creator>
   </cc:Work>
  </rdf:RDF>
 </metadata>
 <defs>
  <style type="text/css">*{stroke-linejoin: round; stroke-linecap: butt}</style>
 </defs>
 <g id="figure_1">
  <g id="patch_1">
   <path d="M 0 345.6 
L 460.8 345.6 
L 460.8 0 
L 0 0 
z
" style="fill: #ffffff"/>
  </g>
  <g id="axes_1">
   <g id="patch_2">
    <path d="M 47.72 303.64 
L 450 303.64 
L 450 10.8 
L 47.72 10.8 
z
" style="fill: #ffffff"/>
   </g>
   <g id="PolyCollection_1">
    <defs>
     <path id="maa49d9254c" d="M 83.558783 -41.974964 
L 83.558783 -41.96 
L 85.305565 -41.96 
L 87.052347 -41.96 
L 88.799129 -41.96 
L 90.545911 -41.96 
L 92.292693 -41.96 
L 94.039475 -41.96 
L 95.786257 -41.96 
L 97.533039 -41.96 
L 99.279821 -41.96 
L 101.026603 -41.96 
L 102.773385 -41.96 
L 104.520167 -41.96 
L 106.266949 -41.96 
L 108.013731 -41.96 
L 109.760513 -41.96 
L 111.507295 -41.96 
L 113.254077 -41.96 
L 115.000859 -41.96 
L 116.747641 -41.96 
L 118.494422 -41.96 
L 120.241204 -41.96 
L 121.987986 -41.96 
L 123.734768 -41.96 
L 125.48155 -41.96 
L 127.228332 -41.96 
L 128.975114 -41.96 
L 130.721896 -41.96 
L 132.468678 -41.96 
L 134.21546 -41.96 
L 135.962242 -41.96 
L 137.709024 -41.96 
L 139.455806 -41.96 
L 141.202588 -41.96 
L 142.94937 -41.96 
L 144.696152 -41.96 
L 146.442934 -41.96 
L 148.189716 -41.96 
L 149.936498 -41.96 
L 151.68328 -41.96 
L 153.430062 -41.96 
L 155.176844 -41.96 
L 156.923626 -41.96 
L 158.670408 -41.96 
L 160.41719 -41.96 
L 162.163972 -41.96 
L 163.910754 -41.96 
L 165.657536 -41.96 
L 167.404318 -41.96 
L 169.1511 -41.96 
L 170.897882 -41.96 
L 172.644664 -41.96 
L 174.391446 -41.96 
L 176.138228 -41.96 
L 177.88501 -41.96 
L 179.631792 -41.96 
L 181.378574 -41.96 
L 183.125356 -41.96 
L 184.872138 -41.96 
L 186.61892 -41.96 
L 188.365702 -41.96 
L 190.112484 -41.96 
L 191.859266 -41.96 
L 193.606048 -41.96 
L 195.35283 -41.96 
L 197.099612 -41.96 
L 198.846394 -41.96 
L 200.593176 -41.96 
L 202.339958 -41.96 
L 204.08674 -41.96 
L 205.833522 -41.96 
L 207.580304 -41.96 
L 209.327086 -41.96 
L 211.073868 -41.96 
L 212.82065 -41.96 
L 214.567432 -41.96 
L 216.314214 -41.96 
L 218.060996 -41.96 
L 219.807778 -41.96 
L 221.55456 -41.96 
L 223.301342 -41.96 
L 225.048124 -41.96 
L 226.794906 -41.96 
L 228.541688 -41.96 
L 230.28847 -41.96 
L 232.035252 -41.96 
L 233.782034 -41.96 
L 235.528816 -41.96 
L 237.275598 -41.96 
L 239.02238 -41.96 
L 240.769162 -41.96 
L 242.515944 -41.96 
L 244.262726 -41.96 
L 246.009508 -41.96 
L 247.75629 -41.96 
L 249.503072 -41.96 
L 251.249854 -41.96 
L 252.996636 -41.96 
L 254.743418 -41.96 
L 256.4902 -41.96 
L 258.236982 -41.96 
L 259.983764 -41.96 
L 261.730546 -41.96 
L 263.477328 -41.96 
L 265.22411 -41.96 
L 266.970892 -41.96 
L 268.717674 -41.96 
L 270.464456 -41.96 
L 272.211238 -41.96 
L 273.95802 -41.96 
L 275.704802 -41.96 
L 277.451584 -41.96 
L 279.198366 -41.96 
L 280.945148 -41.96 
L 282.69193 -41.96 
L 284.438712 -41.96 
L 286.185494 -41.96 
L 287.932276 -41.96 
L 289.679058 -41.96 
L 291.42584 -41.96 
L 293.172622 -41.96 
L 294.919404 -41.96 
L 296.666186 -41.96 
L 298.412968 -41.96 
L 300.15975 -41.96 
L 301.906532 -41.96 
L 303.653314 -41.96 
L 305.400096 -41.96 
L 307.146877 -41.96 
L 308.893659 -41.96 
L 310.640441 -41.96 
L 312.387223 -41.96 
L 314.134005 -41.96 
L 315.880787 -41.96 
L 317.627569 -41.96 
L 319.374351 -41.96 
L 321.121133 -41.96 
L 322.867915 -41.96 
L 324.614697 -41.96 
L 326.361479 -41.96 
L 328.108261 -41.96 
L 329.855043 -41.96 
L 331.601825 -41.96 
L 333.348607 -41.96 
L 335.095389 -41.96 
L 336.842171 -41.96 
L 338.588953 -41.96 
L 340.335735 -41.96 
L 342.082517 -41.96 
L 343.829299 -41.96 
L 345.576081 -41.96 
L 347.322863 -41.96 
L 349.069645 -41.96 
L 350.816427 -41.96 
L 352.563209 -41.96 
L 354.309991 -41.96 
L 356.056773 -41.96 
L 357.803555 -41.96 
L 359.550337 -41.96 
L 361.297119 -41.96 
L 363.043901 -41.96 
L 364.790683 -41.96 
L 366.537465 -41.96 
L 368.284247 -41.96 
L 370.031029 -41.96 
L 371.777811 -41.96 
L 373.524593 -41.96 
L 375.271375 -41.96 
L 377.018157 -41.96 
L 378.764939 -41.96 
L 380.511721 -41.96 
L 382.258503 -41.96 
L 384.005285 -41.96 
L 385.752067 -41.96 
L 387.498849 -41.96 
L 389.245631 -41.96 
L 390.992413 -41.96 
L 392.739195 -41.96 
L 394.485977 -41.96 
L 396.232759 -41.96 
L 397.979541 -41.96 
L 399.726323 -41.96 
L 401.473105 -41.96 
L 403.219887 -41.96 
L 404.966669 -41.96 
L 406.713451 -41.96 
L 408.460233 -41.96 
L 410.207015 -41.96 
L 411.953797 -41.96 
L 413.700579 -41.96 
L 415.447361 -41.96 
L 417.194143 -41.96 
L 418.940925 -41.96 
L 420.687707 -41.96 
L 422.434489 -41.96 
L 424.181271 -41.96 
L 425.928053 -41.96 
L 427.674835 -41.96 
L 429.421617 -41.96 
L 431.168399 -41.96 
L 431.168399 -41.96445 
L 431.168399 -41.96445 
L 429.421617 -41.9677 
L 427.674835 -41.972922 
L 425.928053 -41.981036 
L 424.181271 -41.993238 
L 422.434489 -42.010998 
L 420.687707 -42.036037 
L 418.940925 -42.070242 
L 417.194143 -42.115556 
L 415.447361 -42.173817 
L 413.700579 -42.246596 
L 411.953797 -42.335029 
L 410.207015 -42.439697 
L 408.460233 -42.560553 
L 406.713451 -42.696924 
L 404.966669 -42.847582 
L 403.219887 -43.010873 
L 401.473105 -43.184901 
L 399.726323 -43.36775 
L 397.979541 -43.557741 
L 396.232759 -43.753696 
L 394.485977 -43.955217 
L 392.739195 -44.162913 
L 390.992413 -44.378539 
L 389.245631 -44.60498 
L 387.498849 -44.846023 
L 385.752067 -45.105902 
L 384.005285 -45.388628 
L 382.258503 -45.697201 
L 380.511721 -46.032836 
L 378.764939 -46.394352 
L 377.018157 -46.777908 
L 375.271375 -47.177152 
L 373.524593 -47.583838 
L 371.777811 -47.988798 
L 370.031029 -48.383104 
L 368.284247 -48.759166 
L 366.537465 -49.111535 
L 364.790683 -49.437263 
L 363.043901 -49.735786 
L 361.297119 -50.008456 
L 359.550337 -50.257983 
L 357.803555 -50.488022 
L 356.056773 -50.703148 
L 354.309991 -50.909209 
L 352.563209 -51.113943 
L 350.816427 -51.327533 
L 349.069645 -51.562725 
L 347.322863 -51.834246 
L 345.576081 -52.157383 
L 343.829299 -52.545862 
L 342.082517 -53.009369 
L 340.335735 -53.551191 
L 338.588953 -54.166478 
L 336.842171 -54.841523 
L 335.095389 -55.554301 
L 333.348607 -56.276291 
L 331.601825 -56.975402 
L 329.855043 -57.619667 
L 328.108261 -58.181262 
L 326.361479 -58.640323 
L 324.614697 -58.988068 
L 322.867915 -59.228745 
L 321.121133 -59.380092 
L 319.374351 -59.472126 
L 317.627569 -59.544302 
L 315.880787 -59.641319 
L 314.134005 -59.80803 
L 312.387223 -60.084099 
L 310.640441 -60.499123 
L 308.893659 -61.068909 
L 307.146877 -61.793499 
L 305.400096 -62.657308 
L 303.653314 -63.631428 
L 301.906532 -64.677832 
L 300.15975 -65.754868 
L 298.412968 -66.823206 
L 296.666186 -67.851298 
L 294.919404 -68.819486 
L 293.172622 -69.722168 
L 291.42584 -70.567803 
L 289.679058 -71.376966 
L 287.932276 -72.179023 
L 286.185494 -73.008151 
L 284.438712 -73.899418 
L 282.69193 -74.88542 
L 280.945148 -75.993665 
L 279.198366 -77.24464 
L 277.451584 -78.650373 
L 275.704802 -80.213361 
L 273.95802 -81.925925 
L 272.211238 -83.770283 
L 270.464456 -85.719735 
L 268.717674 -87.741255 
L 266.970892 -89.799519 
L 265.22411 -91.861929 
L 263.477328 -93.903833 
L 261.730546 -95.912917 
L 259.983764 -97.891788 
L 258.236982 -99.858141 
L 256.4902 -101.842383 
L 254.743418 -103.883188 
L 252.996636 -106.02186 
L 251.249854 -108.296623 
L 249.503072 -110.737897 
L 247.75629 -113.365389 
L 246.009508 -116.187431 
L 244.262726 -119.202583 
L 242.515944 -122.403142 
L 240.769162 -125.779878 
L 239.02238 -129.327065 
L 237.275598 -133.046801 
L 235.528816 -136.951544 
L 233.782034 -141.064038 
L 232.035252 -145.41413 
L 230.28847 -150.032648 
L 228.541688 -154.943227 
L 226.794906 -160.153719 
L 225.048124 -165.649274 
L 223.301342 -171.389177 
L 221.55456 -177.308936 
L 219.807778 -183.327924 
L 218.060996 -189.36149 
L 216.314214 -195.335103 
L 214.567432 -201.197297 
L 212.82065 -206.928199 
L 211.073868 -212.541318 
L 209.327086 -218.077845 
L 207.580304 -223.594515 
L 205.833522 -229.147684 
L 204.08674 -234.777172 
L 202.339958 -240.493439 
L 200.593176 -246.27082 
L 198.846394 -252.048023 
L 197.099612 -257.735473 
L 195.35283 -263.227552 
L 193.606048 -268.416953 
L 191.859266 -273.208191 
L 190.112484 -277.527909 
L 188.365702 -281.33066 
L 186.61892 -284.600037 
L 184.872138 -287.346031 
L 183.125356 -289.60006 
L 181.378574 -291.409141 
L 179.631792 -292.830315 
L 177.88501 -293.925874 
L 176.138228 -294.759377 
L 174.391446 -295.392111 
L 172.644664 -295.879574 
L 170.897882 -296.267673 
L 169.1511 -296.588573 
L 167.404318 -296.856365 
L 165.657536 -297.062957 
L 163.910754 -297.174692 
L 162.163972 -297.130377 
L 160.41719 -296.84138 
L 158.670408 -296.194457 
L 156.923626 -295.057639 
L 155.176844 -293.289116 
L 153.430062 -290.748363 
L 151.68328 -287.308166 
L 149.936498 -282.865767 
L 148.189716 -277.351309 
L 146.442934 -270.732287 
L 144.696152 -263.01352 
L 142.94937 -254.233285 
L 141.202588 -244.457134 
L 139.455806 -233.771395 
L 137.709024 -222.278223 
L 135.962242 -210.093373 
L 134.21546 -197.346766 
L 132.468678 -184.18486 
L 130.721896 -170.773068 
L 128.975114 -157.296268 
L 127.228332 -143.955834 
L 125.48155 -130.962558 
L 123.734768 -118.525848 
L 121.987986 -106.840658 
L 120.241204 -96.074155 
L 118.494422 -86.354292 
L 116.747641 -77.762056 
L 115.000859 -70.328458 
L 113.254077 -64.036432 
L 111.507295 -58.827021 
L 109.760513 -54.608606 
L 108.013731 -51.26768 
L 106.266949 -48.679684 
L 104.520167 -46.718665 
L 102.773385 -45.264979 
L 101.026603 -44.210645 
L 99.279821 -43.462412 
L 97.533039 -42.94283 
L 95.786257 -42.589808 
L 94.039475 -42.355165 
L 92.292693 -42.202637 
L 90.545911 -42.105708 
L 88.799129 -42.04552 
L 87.052347 -42.009023 
L 85.305565 -41.987426 
L 83.558783 -41.974964 
z
" style="stroke: #1f77b4"/>
    </defs>
    <g clip-path="url(#pc8dc0df2f3)">
     <use xlink:href="#maa49d9254c" x="0" y="345.6" style="fill: #1f77b4; fill-opacity: 0.25; stroke: #1f77b4"/>
    </g>
   </g>
   <g id="PolyCollection_2">
    <defs>
     <path id="mb0252a25ba" d="M 66.005455 -41.981668 
L 66.005455 -41.96 
L 67.843189 -41.96 
L 69.680923 -41.96 
L 71.518657 -41.96 
L 73.356391 -41.96 
L 75.194125 -41.96 
L 77.031859 -41.96 
L 78.869593 -41.96 
L 80.707328 -41.96 
L 82.545062 -41.96 
L 84.382796 -41.96 
L 86.22053 -41.96 
L 88.058264 -41.96 
L 89.895998 -41.96 
L 91.733732 -41.96 
L 93.571466 -41.96 
L 95.409201 -41.96 
L 97.246935 -41.96 
L 99.084669 -41.96 
L 100.922403 -41.96 
L 102.760137 -41.96 
L 104.597871 -41.96 
L 106.435605 -41.96 
L 108.273339 -41.96 
L 110.111074 -41.96 
L 111.948808 -41.96 
L 113.786542 -41.96 
L 115.624276 -41.96 
L 117.46201 -41.96 
L 119.299744 -41.96 
L 121.137478 -41.96 
L 122.975212 -41.96 
L 124.812947 -41.96 
L 126.650681 -41.96 
L 128.488415 -41.96 
L 130.326149 -41.96 
L 132.163883 -41.96 
L 134.001617 -41.96 
L 135.839351 -41.96 
L 137.677085 -41.96 
L 139.51482 -41.96 
L 141.352554 -41.96 
L 143.190288 -41.96 
L 145.028022 -41.96 
L 146.865756 -41.96 
L 148.70349 -41.96 
L 150.541224 -41.96 
L 152.378958 -41.96 
L 154.216693 -41.96 
L 156.054427 -41.96 
L 157.892161 -41.96 
L 159.729895 -41.96 
L 161.567629 -41.96 
L 163.405363 -41.96 
L 165.243097 -41.96 
L 167.080831 -41.96 
L 168.918566 -41.96 
L 170.7563 -41.96 
L 172.594034 -41.96 
L 174.431768 -41.96 
L 176.269502 -41.96 
L 178.107236 -41.96 
L 179.94497 -41.96 
L 181.782704 -41.96 
L 183.620439 -41.96 
L 185.458173 -41.96 
L 187.295907 -41.96 
L 189.133641 -41.96 
L 190.971375 -41.96 
L 192.809109 -41.96 
L 194.646843 -41.96 
L 196.484577 -41.96 
L 198.322312 -41.96 
L 200.160046 -41.96 
L 201.99778 -41.96 
L 203.835514 -41.96 
L 205.673248 -41.96 
L 207.510982 -41.96 
L 209.348716 -41.96 
L 211.18645 -41.96 
L 213.024185 -41.96 
L 214.861919 -41.96 
L 216.699653 -41.96 
L 218.537387 -41.96 
L 220.375121 -41.96 
L 222.212855 -41.96 
L 224.050589 -41.96 
L 225.888323 -41.96 
L 227.726058 -41.96 
L 229.563792 -41.96 
L 231.401526 -41.96 
L 233.23926 -41.96 
L 235.076994 -41.96 
L 236.914728 -41.96 
L 238.752462 -41.96 
L 240.590196 -41.96 
L 242.427931 -41.96 
L 244.265665 -41.96 
L 246.103399 -41.96 
L 247.941133 -41.96 
L 249.778867 -41.96 
L 251.616601 -41.96 
L 253.454335 -41.96 
L 255.292069 -41.96 
L 257.129804 -41.96 
L 258.967538 -41.96 
L 260.805272 -41.96 
L 262.643006 -41.96 
L 264.48074 -41.96 
L 266.318474 -41.96 
L 268.156208 -41.96 
L 269.993942 -41.96 
L 271.831677 -41.96 
L 273.669411 -41.96 
L 275.507145 -41.96 
L 277.344879 -41.96 
L 279.182613 -41.96 
L 281.020347 -41.96 
L 282.858081 -41.96 
L 284.695815 -41.96 
L 286.53355 -41.96 
L 288.371284 -41.96 
L 290.209018 -41.96 
L 292.046752 -41.96 
L 293.884486 -41.96 
L 295.72222 -41.96 
L 297.559954 -41.96 
L 299.397688 -41.96 
L 301.235423 -41.96 
L 303.073157 -41.96 
L 304.910891 -41.96 
L 306.748625 -41.96 
L 308.586359 -41.96 
L 310.424093 -41.96 
L 312.261827 -41.96 
L 314.099561 -41.96 
L 315.937296 -41.96 
L 317.77503 -41.96 
L 319.612764 -41.96 
L 321.450498 -41.96 
L 323.288232 -41.96 
L 325.125966 -41.96 
L 326.9637 -41.96 
L 328.801434 -41.96 
L 330.639169 -41.96 
L 332.476903 -41.96 
L 334.314637 -41.96 
L 336.152371 -41.96 
L 337.990105 -41.96 
L 339.827839 -41.96 
L 341.665573 -41.96 
L 343.503307 -41.96 
L 345.341042 -41.96 
L 347.178776 -41.96 
L 349.01651 -41.96 
L 350.854244 -41.96 
L 352.691978 -41.96 
L 354.529712 -41.96 
L 356.367446 -41.96 
L 358.20518 -41.96 
L 360.042915 -41.96 
L 361.880649 -41.96 
L 363.718383 -41.96 
L 365.556117 -41.96 
L 367.393851 -41.96 
L 369.231585 -41.96 
L 371.069319 -41.96 
L 372.907053 -41.96 
L 374.744788 -41.96 
L 376.582522 -41.96 
L 378.420256 -41.96 
L 380.25799 -41.96 
L 382.095724 -41.96 
L 383.933458 -41.96 
L 385.771192 -41.96 
L 387.608926 -41.96 
L 389.446661 -41.96 
L 391.284395 -41.96 
L 393.122129 -41.96 
L 394.959863 -41.96 
L 396.797597 -41.96 
L 398.635331 -41.96 
L 400.473065 -41.96 
L 402.310799 -41.96 
L 404.148534 -41.96 
L 405.986268 -41.96 
L 407.824002 -41.96 
L 409.661736 -41.96 
L 411.49947 -41.96 
L 413.337204 -41.96 
L 415.174938 -41.96 
L 417.012672 -41.96 
L 418.850407 -41.96 
L 420.688141 -41.96 
L 422.525875 -41.96 
L 424.363609 -41.96 
L 426.201343 -41.96 
L 428.039077 -41.96 
L 429.876811 -41.96 
L 431.714545 -41.96 
L 431.714545 -41.964697 
L 431.714545 -41.964697 
L 429.876811 -41.968345 
L 428.039077 -41.974365 
L 426.201343 -41.983971 
L 424.363609 -41.998802 
L 422.525875 -42.02097 
L 420.688141 -42.053069 
L 418.850407 -42.09812 
L 417.012672 -42.159446 
L 415.174938 -42.240457 
L 413.337204 -42.344345 
L 411.49947 -42.473719 
L 409.661736 -42.630191 
L 407.824002 -42.813979 
L 405.986268 -43.023586 
L 404.148534 -43.255649 
L 402.310799 -43.505033 
L 400.473065 -43.765232 
L 398.635331 -44.029086 
L 396.797597 -44.289751 
L 394.959863 -44.541768 
L 393.122129 -44.78203 
L 391.284395 -45.010398 
L 389.446661 -45.22981 
L 387.608926 -45.445808 
L 385.771192 -45.665572 
L 383.933458 -45.896689 
L 382.095724 -46.145962 
L 380.25799 -46.418523 
L 378.420256 -46.717426 
L 376.582522 -47.04371 
L 374.744788 -47.396783 
L 372.907053 -47.774909 
L 371.069319 -48.175596 
L 369.231585 -48.59581 
L 367.393851 -49.032056 
L 365.556117 -49.480482 
L 363.718383 -49.937127 
L 361.880649 -50.398358 
L 360.042915 -50.861409 
L 358.20518 -51.324792 
L 356.367446 -51.788379 
L 354.529712 -52.253033 
L 352.691978 -52.719845 
L 350.854244 -53.18922 
L 349.01651 -53.660142 
L 347.178776 -54.129921 
L 345.341042 -54.594554 
L 343.503307 -55.049595 
L 341.665573 -55.491245 
L 339.827839 -55.917277 
L 337.990105 -56.327459 
L 336.152371 -56.723361 
L 334.314637 -57.107641 
L 332.476903 -57.483144 
L 330.639169 -57.852179 
L 328.801434 -58.216278 
L 326.9637 -58.576505 
L 325.125966 -58.934174 
L 323.288232 -59.291661 
L 321.450498 -59.652996 
L 319.612764 -60.02408 
L 317.77503 -60.412563 
L 315.937296 -60.827572 
L 314.099561 -61.279521 
L 312.261827 -61.780051 
L 310.424093 -62.34198 
L 308.586359 -62.978923 
L 306.748625 -63.704283 
L 304.910891 -64.529469 
L 303.073157 -65.461571 
L 301.235423 -66.501026 
L 299.397688 -67.639964 
L 297.559954 -68.861841 
L 295.72222 -70.142598 
L 293.884486 -71.453146 
L 292.046752 -72.762608 
L 290.209018 -74.041561 
L 288.371284 -75.264663 
L 286.53355 -76.412336 
L 284.695815 -77.471608 
L 282.858081 -78.436455 
L 281.020347 -79.308055 
L 279.182613 -80.095205 
L 277.344879 -80.81485 
L 275.507145 -81.492353 
L 273.669411 -82.16105 
L 271.831677 -82.860694 
L 269.993942 -83.634676 
L 268.156208 -84.526293 
L 266.318474 -85.57463 
L 264.48074 -86.810763 
L 262.643006 -88.25497 
L 260.805272 -89.915441 
L 258.967538 -91.788723 
L 257.129804 -93.861904 
L 255.292069 -96.116344 
L 253.454335 -98.532555 
L 251.616601 -101.095665 
L 249.778867 -103.800625 
L 247.941133 -106.656175 
L 246.103399 -109.686514 
L 244.265665 -112.929851 
L 242.427931 -116.43363 
L 240.590196 -120.247009 
L 238.752462 -124.412098 
L 236.914728 -128.956047 
L 235.076994 -133.886123 
L 233.23926 -139.189297 
L 231.401526 -144.836647 
L 229.563792 -150.791473 
L 227.726058 -157.018828 
L 225.888323 -163.493605 
L 224.050589 -170.204681 
L 222.212855 -177.15365 
L 220.375121 -184.34828 
L 218.537387 -191.792366 
L 216.699653 -199.474753 
L 214.861919 -207.360631 
L 213.024185 -215.387713 
L 211.18645 -223.468648 
L 209.348716 -231.499471 
L 207.510982 -239.372285 
L 205.673248 -246.989297 
L 203.835514 -254.274978 
L 201.99778 -261.183574 
L 200.160046 -267.700431 
L 198.322312 -273.837152 
L 196.484577 -279.622062 
L 194.646843 -285.08848 
L 192.809109 -290.263537 
L 190.971375 -295.159749 
L 189.133641 -299.770605 
L 187.295907 -304.070186 
L 185.458173 -308.015943 
L 183.620439 -311.553156 
L 181.782704 -314.619656 
L 179.94497 -317.149694 
L 178.107236 -319.076481 
L 176.269502 -320.333513 
L 174.431768 -320.855238 
L 172.594034 -320.577916 
L 170.7563 -319.441446 
L 168.918566 -317.392703 
L 167.080831 -314.390397 
L 165.243097 -310.410884 
L 163.405363 -305.453834 
L 161.567629 -299.546341 
L 159.729895 -292.744207 
L 157.892161 -285.129674 
L 156.054427 -276.805697 
L 154.216693 -267.887766 
L 152.378958 -258.494857 
L 150.541224 -248.741241 
L 148.70349 -238.730498 
L 146.865756 -228.552365 
L 145.028022 -218.28228 
L 143.190288 -207.982907 
L 141.352554 -197.706721 
L 139.51482 -187.498836 
L 137.677085 -177.399565 
L 135.839351 -167.446526 
L 134.001617 -157.676294 
L 132.163883 -148.125681 
L 130.326149 -138.832664 
L 128.488415 -129.836916 
L 126.650681 -121.179872 
L 124.812947 -112.904246 
L 122.975212 -105.053004 
L 121.137478 -97.667834 
L 119.299744 -90.787217 
L 117.46201 -84.444218 
L 115.624276 -78.66415 
L 113.786542 -73.462276 
L 111.948808 -68.841784 
L 110.111074 -64.792317 
L 108.273339 -61.289382 
L 106.435605 -58.294937 
L 104.597871 -55.759357 
L 102.760137 -53.624729 
L 100.922403 -51.829198 
L 99.084669 -50.311771 
L 97.246935 -49.016863 
L 95.409201 -47.897846 
L 93.571466 -46.919034 
L 91.733732 -46.055903 
L 89.895998 -45.293682 
L 88.058264 -44.624791 
L 86.22053 -44.04581 
L 84.382796 -43.554609 
L 82.545062 -43.148177 
L 80.707328 -42.821395 
L 78.869593 -42.566748 
L 77.031859 -42.374769 
L 75.194125 -42.234917 
L 73.356391 -42.136553 
L 71.518657 -42.069791 
L 69.680923 -42.026079 
L 67.843189 -41.998477 
L 66.005455 -41.981668 
z
" style="stroke: #ff7f0e"/>
    </defs>
    <g clip-path="url(#pc8dc0df2f3)">
     <use xlink:href="#mb0252a25ba" x="0" y="345.6" style="fill: #ff7f0e; fill-opacity: 0.25; stroke: #ff7f0e"/>
    </g>
   </g>
   <g id="matplotlib.axis_1">
    <g id="xtick_1">
     <g id="line2d_1">
      <defs>
       <path id="ma2d4deb35c" d="M 0 0 
L 0 3.5 
" style="stroke: #000000; stroke-width: 0.8"/>
      </defs>
      <g>
       <use xlink:href="#ma2d4deb35c" x="95.143072" y="303.64" style="stroke: #000000; stroke-width: 0.8"/>
      </g>
     </g>
     <g id="text_1">
      <!-- 0 -->
      <g transform="translate(91.961822 318.238437)scale(0.1 -0.1)">
       <defs>
        <path id="DejaVuSans-30" d="M 2034 4250 
Q 1547 4250 1301 3770 
Q 1056 3291 1056 2328 
Q 1056 1369 1301 889 
Q 1547 409 2034 409 
Q 2525 409 2770 889 
Q 3016 1369 3016 2328 
Q 3016 3291 2770 3770 
Q 2525 4250 2034 4250 
z
M 2034 4750 
Q 2819 4750 3233 4129 
Q 3647 3509 3647 2328 
Q 3647 1150 3233 529 
Q 2819 -91 2034 -91 
Q 1250 -91 836 529 
Q 422 1150 422 2328 
Q 422 3509 836 4129 
Q 1250 4750 2034 4750 
z
" transform="scale(0.015625)"/>
       </defs>
       <use xlink:href="#DejaVuSans-30"/>
      </g>
     </g>
    </g>
    <g id="xtick_2">
     <g id="line2d_2">
      <g>
       <use xlink:href="#ma2d4deb35c" x="158.356677" y="303.64" style="stroke: #000000; stroke-width: 0.8"/>
      </g>
     </g>
     <g id="text_2">
      <!-- 1 -->
      <g transform="translate(155.175427 318.238437)scale(0.1 -0.1)">
       <defs>
        <path id="DejaVuSans-31" d="M 794 531 
L 1825 531 
L 1825 4091 
L 703 3866 
L 703 4441 
L 1819 4666 
L 2450 4666 
L 2450 531 
L 3481 531 
L 3481 0 
L 794 0 
L 794 531 
z
" transform="scale(0.015625)"/>
       </defs>
       <use xlink:href="#DejaVuSans-31"/>
      </g>
     </g>
    </g>
    <g id="xtick_3">
     <g id="line2d_3">
      <g>
       <use xlink:href="#ma2d4deb35c" x="221.570282" y="303.64" style="stroke: #000000; stroke-width: 0.8"/>
      </g>
     </g>
     <g id="text_3">
      <!-- 2 -->
      <g transform="translate(218.389032 318.238437)scale(0.1 -0.1)">
       <defs>
        <path id="DejaVuSans-32" d="M 1228 531 
L 3431 531 
L 3431 0 
L 469 0 
L 469 531 
Q 828 903 1448 1529 
Q 2069 2156 2228 2338 
Q 2531 2678 2651 2914 
Q 2772 3150 2772 3378 
Q 2772 3750 2511 3984 
Q 2250 4219 1831 4219 
Q 1534 4219 1204 4116 
Q 875 4013 500 3803 
L 500 4441 
Q 881 4594 1212 4672 
Q 1544 4750 1819 4750 
Q 2544 4750 2975 4387 
Q 3406 4025 3406 3419 
Q 3406 3131 3298 2873 
Q 3191 2616 2906 2266 
Q 2828 2175 2409 1742 
Q 1991 1309 1228 531 
z
" transform="scale(0.015625)"/>
       </defs>
       <use xlink:href="#DejaVuSans-32"/>
      </g>
     </g>
    </g>
    <g id="xtick_4">
     <g id="line2d_4">
      <g>
       <use xlink:href="#ma2d4deb35c" x="284.783887" y="303.64" style="stroke: #000000; stroke-width: 0.8"/>
      </g>
     </g>
     <g id="text_4">
      <!-- 3 -->
      <g transform="translate(281.602637 318.238437)scale(0.1 -0.1)">
       <defs>
        <path id="DejaVuSans-33" d="M 2597 2516 
Q 3050 2419 3304 2112 
Q 3559 1806 3559 1356 
Q 3559 666 3084 287 
Q 2609 -91 1734 -91 
Q 1441 -91 1130 -33 
Q 819 25 488 141 
L 488 750 
Q 750 597 1062 519 
Q 1375 441 1716 441 
Q 2309 441 2620 675 
Q 2931 909 2931 1356 
Q 2931 1769 2642 2001 
Q 2353 2234 1838 2234 
L 1294 2234 
L 1294 2753 
L 1863 2753 
Q 2328 2753 2575 2939 
Q 2822 3125 2822 3475 
Q 2822 3834 2567 4026 
Q 2313 4219 1838 4219 
Q 1578 4219 1281 4162 
Q 984 4106 628 3988 
L 628 4550 
Q 988 4650 1302 4700 
Q 1616 4750 1894 4750 
Q 2613 4750 3031 4423 
Q 3450 4097 3450 3541 
Q 3450 3153 3228 2886 
Q 3006 2619 2597 2516 
z
" transform="scale(0.015625)"/>
       </defs>
       <use xlink:href="#DejaVuSans-33"/>
      </g>
     </g>
    </g>
    <g id="xtick_5">
     <g id="line2d_5">
      <g>
       <use xlink:href="#ma2d4deb35c" x="347.997492" y="303.64" style="stroke: #000000; stroke-width: 0.8"/>
      </g>
     </g>
     <g id="text_5">
      <!-- 4 -->
      <g transform="translate(344.816242 318.238437)scale(0.1 -0.1)">
       <defs>
        <path id="DejaVuSans-34" d="M 2419 4116 
L 825 1625 
L 2419 1625 
L 2419 4116 
z
M 2253 4666 
L 3047 4666 
L 3047 1625 
L 3713 1625 
L 3713 1100 
L 3047 1100 
L 3047 0 
L 2419 0 
L 2419 1100 
L 313 1100 
L 313 1709 
L 2253 4666 
z
" transform="scale(0.015625)"/>
       </defs>
       <use xlink:href="#DejaVuSans-34"/>
      </g>
     </g>
    </g>
    <g id="xtick_6">
     <g id="line2d_6">
      <g>
       <use xlink:href="#ma2d4deb35c" x="411.211097" y="303.64" style="stroke: #000000; stroke-width: 0.8"/>
      </g>
     </g>
     <g id="text_6">
      <!-- 5 -->
      <g transform="translate(408.029847 318.238437)scale(0.1 -0.1)">
       <defs>
        <path id="DejaVuSans-35" d="M 691 4666 
L 3169 4666 
L 3169 4134 
L 1269 4134 
L 1269 2991 
Q 1406 3038 1543 3061 
Q 1681 3084 1819 3084 
Q 2600 3084 3056 2656 
Q 3513 2228 3513 1497 
Q 3513 744 3044 326 
Q 2575 -91 1722 -91 
Q 1428 -91 1123 -41 
Q 819 9 494 109 
L 494 744 
Q 775 591 1075 516 
Q 1375 441 1709 441 
Q 2250 441 2565 725 
Q 2881 1009 2881 1497 
Q 2881 1984 2565 2268 
Q 2250 2553 1709 2553 
Q 1456 2553 1204 2497 
Q 953 2441 691 2322 
L 691 4666 
z
" transform="scale(0.015625)"/>
       </defs>
       <use xlink:href="#DejaVuSans-35"/>
      </g>
     </g>
    </g>
    <g id="text_7">
     <!-- THW (s) -->
     <g transform="translate(229.006875 331.916562)scale(0.1 -0.1)">
      <defs>
       <path id="DejaVuSans-54" d="M -19 4666 
L 3928 4666 
L 3928 4134 
L 2272 4134 
L 2272 0 
L 1638 0 
L 1638 4134 
L -19 4134 
L -19 4666 
z
" transform="scale(0.015625)"/>
       <path id="DejaVuSans-48" d="M 628 4666 
L 1259 4666 
L 1259 2753 
L 3553 2753 
L 3553 4666 
L 4184 4666 
L 4184 0 
L 3553 0 
L 3553 2222 
L 1259 2222 
L 1259 0 
L 628 0 
L 628 4666 
z
" transform="scale(0.015625)"/>
       <path id="DejaVuSans-57" d="M 213 4666 
L 850 4666 
L 1831 722 
L 2809 4666 
L 3519 4666 
L 4500 722 
L 5478 4666 
L 6119 4666 
L 4947 0 
L 4153 0 
L 3169 4050 
L 2175 0 
L 1381 0 
L 213 4666 
z
" transform="scale(0.015625)"/>
       <path id="DejaVuSans-20" transform="scale(0.015625)"/>
       <path id="DejaVuSans-28" d="M 1984 4856 
Q 1566 4138 1362 3434 
Q 1159 2731 1159 2009 
Q 1159 1288 1364 580 
Q 1569 -128 1984 -844 
L 1484 -844 
Q 1016 -109 783 600 
Q 550 1309 550 2009 
Q 550 2706 781 3412 
Q 1013 4119 1484 4856 
L 1984 4856 
z
" transform="scale(0.015625)"/>
       <path id="DejaVuSans-73" d="M 2834 3397 
L 2834 2853 
Q 2591 2978 2328 3040 
Q 2066 3103 1784 3103 
Q 1356 3103 1142 2972 
Q 928 2841 928 2578 
Q 928 2378 1081 2264 
Q 1234 2150 1697 2047 
L 1894 2003 
Q 2506 1872 2764 1633 
Q 3022 1394 3022 966 
Q 3022 478 2636 193 
Q 2250 -91 1575 -91 
Q 1294 -91 989 -36 
Q 684 19 347 128 
L 347 722 
Q 666 556 975 473 
Q 1284 391 1588 391 
Q 1994 391 2212 530 
Q 2431 669 2431 922 
Q 2431 1156 2273 1281 
Q 2116 1406 1581 1522 
L 1381 1569 
Q 847 1681 609 1914 
Q 372 2147 372 2553 
Q 372 3047 722 3315 
Q 1072 3584 1716 3584 
Q 2034 3584 2315 3537 
Q 2597 3491 2834 3397 
z
" transform="scale(0.015625)"/>
       <path id="DejaVuSans-29" d="M 513 4856 
L 1013 4856 
Q 1481 4119 1714 3412 
Q 1947 2706 1947 2009 
Q 1947 1309 1714 600 
Q 1481 -109 1013 -844 
L 513 -844 
Q 928 -128 1133 580 
Q 1338 1288 1338 2009 
Q 1338 2731 1133 3434 
Q 928 4138 513 4856 
z
" transform="scale(0.015625)"/>
      </defs>
      <use xlink:href="#DejaVuSans-54"/>
      <use xlink:href="#DejaVuSans-48" x="61.083984"/>
      <use xlink:href="#DejaVuSans-57" x="136.279297"/>
      <use xlink:href="#DejaVuSans-20" x="235.15625"/>
      <use xlink:href="#DejaVuSans-28" x="266.943359"/>
      <use xlink:href="#DejaVuSans-73" x="305.957031"/>
      <use xlink:href="#DejaVuSans-29" x="358.056641"/>
     </g>
    </g>
   </g>
   <g id="matplotlib.axis_2">
    <g id="ytick_1">
     <g id="line2d_7">
      <defs>
       <path id="mac051165a0" d="M 0 0 
L -3.5 0 
" style="stroke: #000000; stroke-width: 0.8"/>
      </defs>
      <g>
       <use xlink:href="#mac051165a0" x="47.72" y="303.64" style="stroke: #000000; stroke-width: 0.8"/>
      </g>
     </g>
     <g id="text_8">
      <!-- 0.0 -->
      <g transform="translate(24.816875 307.439219)scale(0.1 -0.1)">
       <defs>
        <path id="DejaVuSans-2e" d="M 684 794 
L 1344 794 
L 1344 0 
L 684 0 
L 684 794 
z
" transform="scale(0.015625)"/>
       </defs>
       <use xlink:href="#DejaVuSans-30"/>
       <use xlink:href="#DejaVuSans-2e" x="63.623047"/>
       <use xlink:href="#DejaVuSans-30" x="95.410156"/>
      </g>
     </g>
    </g>
    <g id="ytick_2">
     <g id="line2d_8">
      <g>
       <use xlink:href="#mac051165a0" x="47.72" y="261.07493" style="stroke: #000000; stroke-width: 0.8"/>
      </g>
     </g>
     <g id="text_9">
      <!-- 0.1 -->
      <g transform="translate(24.816875 264.874149)scale(0.1 -0.1)">
       <use xlink:href="#DejaVuSans-30"/>
       <use xlink:href="#DejaVuSans-2e" x="63.623047"/>
       <use xlink:href="#DejaVuSans-31" x="95.410156"/>
      </g>
     </g>
    </g>
    <g id="ytick_3">
     <g id="line2d_9">
      <g>
       <use xlink:href="#mac051165a0" x="47.72" y="218.509861" style="stroke: #000000; stroke-width: 0.8"/>
      </g>
     </g>
     <g id="text_10">
      <!-- 0.2 -->
      <g transform="translate(24.816875 222.309079)scale(0.1 -0.1)">
       <use xlink:href="#DejaVuSans-30"/>
       <use xlink:href="#DejaVuSans-2e" x="63.623047"/>
       <use xlink:href="#DejaVuSans-32" x="95.410156"/>
      </g>
     </g>
    </g>
    <g id="ytick_4">
     <g id="line2d_10">
      <g>
       <use xlink:href="#mac051165a0" x="47.72" y="175.944791" style="stroke: #000000; stroke-width: 0.8"/>
      </g>
     </g>
     <g id="text_11">
      <!-- 0.3 -->
      <g transform="translate(24.816875 179.74401)scale(0.1 -0.1)">
       <use xlink:href="#DejaVuSans-30"/>
       <use xlink:href="#DejaVuSans-2e" x="63.623047"/>
       <use xlink:href="#DejaVuSans-33" x="95.410156"/>
      </g>
     </g>
    </g>
    <g id="ytick_5">
     <g id="line2d_11">
      <g>
       <use xlink:href="#mac051165a0" x="47.72" y="133.379721" style="stroke: #000000; stroke-width: 0.8"/>
      </g>
     </g>
     <g id="text_12">
      <!-- 0.4 -->
      <g transform="translate(24.816875 137.17894)scale(0.1 -0.1)">
       <use xlink:href="#DejaVuSans-30"/>
       <use xlink:href="#DejaVuSans-2e" x="63.623047"/>
       <use xlink:href="#DejaVuSans-34" x="95.410156"/>
      </g>
     </g>
    </g>
    <g id="ytick_6">
     <g id="line2d_12">
      <g>
       <use xlink:href="#mac051165a0" x="47.72" y="90.814652" style="stroke: #000000; stroke-width: 0.8"/>
      </g>
     </g>
     <g id="text_13">
      <!-- 0.5 -->
      <g transform="translate(24.816875 94.613871)scale(0.1 -0.1)">
       <use xlink:href="#DejaVuSans-30"/>
       <use xlink:href="#DejaVuSans-2e" x="63.623047"/>
       <use xlink:href="#DejaVuSans-35" x="95.410156"/>
      </g>
     </g>
    </g>
    <g id="ytick_7">
     <g id="line2d_13">
      <g>
       <use xlink:href="#mac051165a0" x="47.72" y="48.249582" style="stroke: #000000; stroke-width: 0.8"/>
      </g>
     </g>
     <g id="text_14">
      <!-- 0.6 -->
      <g transform="translate(24.816875 52.048801)scale(0.1 -0.1)">
       <defs>
        <path id="DejaVuSans-36" d="M 2113 2584 
Q 1688 2584 1439 2293 
Q 1191 2003 1191 1497 
Q 1191 994 1439 701 
Q 1688 409 2113 409 
Q 2538 409 2786 701 
Q 3034 994 3034 1497 
Q 3034 2003 2786 2293 
Q 2538 2584 2113 2584 
z
M 3366 4563 
L 3366 3988 
Q 3128 4100 2886 4159 
Q 2644 4219 2406 4219 
Q 1781 4219 1451 3797 
Q 1122 3375 1075 2522 
Q 1259 2794 1537 2939 
Q 1816 3084 2150 3084 
Q 2853 3084 3261 2657 
Q 3669 2231 3669 1497 
Q 3669 778 3244 343 
Q 2819 -91 2113 -91 
Q 1303 -91 875 529 
Q 447 1150 447 2328 
Q 447 3434 972 4092 
Q 1497 4750 2381 4750 
Q 2619 4750 2861 4703 
Q 3103 4656 3366 4563 
z
" transform="scale(0.015625)"/>
       </defs>
       <use xlink:href="#DejaVuSans-30"/>
       <use xlink:href="#DejaVuSans-2e" x="63.623047"/>
       <use xlink:href="#DejaVuSans-36" x="95.410156"/>
      </g>
     </g>
    </g>
    <g id="text_15">
     <!-- Density -->
     <g transform="translate(18.737188 176.228594)rotate(-90)scale(0.1 -0.1)">
      <defs>
       <path id="DejaVuSans-44" d="M 1259 4147 
L 1259 519 
L 2022 519 
Q 2988 519 3436 956 
Q 3884 1394 3884 2338 
Q 3884 3275 3436 3711 
Q 2988 4147 2022 4147 
L 1259 4147 
z
M 628 4666 
L 1925 4666 
Q 3281 4666 3915 4102 
Q 4550 3538 4550 2338 
Q 4550 1131 3912 565 
Q 3275 0 1925 0 
L 628 0 
L 628 4666 
z
" transform="scale(0.015625)"/>
       <path id="DejaVuSans-65" d="M 3597 1894 
L 3597 1613 
L 953 1613 
Q 991 1019 1311 708 
Q 1631 397 2203 397 
Q 2534 397 2845 478 
Q 3156 559 3463 722 
L 3463 178 
Q 3153 47 2828 -22 
Q 2503 -91 2169 -91 
Q 1331 -91 842 396 
Q 353 884 353 1716 
Q 353 2575 817 3079 
Q 1281 3584 2069 3584 
Q 2775 3584 3186 3129 
Q 3597 2675 3597 1894 
z
M 3022 2063 
Q 3016 2534 2758 2815 
Q 2500 3097 2075 3097 
Q 1594 3097 1305 2825 
Q 1016 2553 972 2059 
L 3022 2063 
z
" transform="scale(0.015625)"/>
       <path id="DejaVuSans-6e" d="M 3513 2113 
L 3513 0 
L 2938 0 
L 2938 2094 
Q 2938 2591 2744 2837 
Q 2550 3084 2163 3084 
Q 1697 3084 1428 2787 
Q 1159 2491 1159 1978 
L 1159 0 
L 581 0 
L 581 3500 
L 1159 3500 
L 1159 2956 
Q 1366 3272 1645 3428 
Q 1925 3584 2291 3584 
Q 2894 3584 3203 3211 
Q 3513 2838 3513 2113 
z
" transform="scale(0.015625)"/>
       <path id="DejaVuSans-69" d="M 603 3500 
L 1178 3500 
L 1178 0 
L 603 0 
L 603 3500 
z
M 603 4863 
L 1178 4863 
L 1178 4134 
L 603 4134 
L 603 4863 
z
" transform="scale(0.015625)"/>
       <path id="DejaVuSans-74" d="M 1172 4494 
L 1172 3500 
L 2356 3500 
L 2356 3053 
L 1172 3053 
L 1172 1153 
Q 1172 725 1289 603 
Q 1406 481 1766 481 
L 2356 481 
L 2356 0 
L 1766 0 
Q 1100 0 847 248 
Q 594 497 594 1153 
L 594 3053 
L 172 3053 
L 172 3500 
L 594 3500 
L 594 4494 
L 1172 4494 
z
" transform="scale(0.015625)"/>
       <path id="DejaVuSans-79" d="M 2059 -325 
Q 1816 -950 1584 -1140 
Q 1353 -1331 966 -1331 
L 506 -1331 
L 506 -850 
L 844 -850 
Q 1081 -850 1212 -737 
Q 1344 -625 1503 -206 
L 1606 56 
L 191 3500 
L 800 3500 
L 1894 763 
L 2988 3500 
L 3597 3500 
L 2059 -325 
z
" transform="scale(0.015625)"/>
      </defs>
      <use xlink:href="#DejaVuSans-44"/>
      <use xlink:href="#DejaVuSans-65" x="77.001953"/>
      <use xlink:href="#DejaVuSans-6e" x="138.525391"/>
      <use xlink:href="#DejaVuSans-73" x="201.904297"/>
      <use xlink:href="#DejaVuSans-69" x="254.003906"/>
      <use xlink:href="#DejaVuSans-74" x="281.787109"/>
      <use xlink:href="#DejaVuSans-79" x="320.996094"/>
     </g>
    </g>
   </g>
   <g id="patch_3">
    <path d="M 47.72 303.64 
L 47.72 10.8 
" style="fill: none; stroke: #000000; stroke-width: 0.8; stroke-linejoin: miter; stroke-linecap: square"/>
   </g>
   <g id="patch_4">
    <path d="M 450 303.64 
L 450 10.8 
" style="fill: none; stroke: #000000; stroke-width: 0.8; stroke-linejoin: miter; stroke-linecap: square"/>
   </g>
   <g id="patch_5">
    <path d="M 47.72 303.64 
L 450 303.64 
" style="fill: none; stroke: #000000; stroke-width: 0.8; stroke-linejoin: miter; stroke-linecap: square"/>
   </g>
   <g id="patch_6">
    <path d="M 47.72 10.8 
L 450 10.8 
" style="fill: none; stroke: #000000; stroke-width: 0.8; stroke-linejoin: miter; stroke-linecap: square"/>
   </g>
   <g id="legend_1">
    <g id="patch_7">
     <path d="M 309.051562 48.15625 
L 443 48.15625 
Q 445 48.15625 445 46.15625 
L 445 17.8 
Q 445 15.8 443 15.8 
L 309.051562 15.8 
Q 307.051562 15.8 307.051562 17.8 
L 307.051562 46.15625 
Q 307.051562 48.15625 309.051562 48.15625 
z
" style="fill: #ffffff; opacity: 0.8; stroke: #cccccc; stroke-linejoin: miter"/>
    </g>
    <g id="patch_8">
     <path d="M 311.051562 27.398438 
L 331.051562 27.398438 
L 331.051562 20.398438 
L 311.051562 20.398438 
z
" style="fill: #1f77b4; fill-opacity: 0.25; stroke: #1f77b4; stroke-linejoin: miter"/>
    </g>
    <g id="text_16">
     <!-- real-world Scenarios -->
     <g transform="translate(339.051562 27.398438)scale(0.1 -0.1)">
      <defs>
       <path id="DejaVuSans-72" d="M 2631 2963 
Q 2534 3019 2420 3045 
Q 2306 3072 2169 3072 
Q 1681 3072 1420 2755 
Q 1159 2438 1159 1844 
L 1159 0 
L 581 0 
L 581 3500 
L 1159 3500 
L 1159 2956 
Q 1341 3275 1631 3429 
Q 1922 3584 2338 3584 
Q 2397 3584 2469 3576 
Q 2541 3569 2628 3553 
L 2631 2963 
z
" transform="scale(0.015625)"/>
       <path id="DejaVuSans-61" d="M 2194 1759 
Q 1497 1759 1228 1600 
Q 959 1441 959 1056 
Q 959 750 1161 570 
Q 1363 391 1709 391 
Q 2188 391 2477 730 
Q 2766 1069 2766 1631 
L 2766 1759 
L 2194 1759 
z
M 3341 1997 
L 3341 0 
L 2766 0 
L 2766 531 
Q 2569 213 2275 61 
Q 1981 -91 1556 -91 
Q 1019 -91 701 211 
Q 384 513 384 1019 
Q 384 1609 779 1909 
Q 1175 2209 1959 2209 
L 2766 2209 
L 2766 2266 
Q 2766 2663 2505 2880 
Q 2244 3097 1772 3097 
Q 1472 3097 1187 3025 
Q 903 2953 641 2809 
L 641 3341 
Q 956 3463 1253 3523 
Q 1550 3584 1831 3584 
Q 2591 3584 2966 3190 
Q 3341 2797 3341 1997 
z
" transform="scale(0.015625)"/>
       <path id="DejaVuSans-6c" d="M 603 4863 
L 1178 4863 
L 1178 0 
L 603 0 
L 603 4863 
z
" transform="scale(0.015625)"/>
       <path id="DejaVuSans-2d" d="M 313 2009 
L 1997 2009 
L 1997 1497 
L 313 1497 
L 313 2009 
z
" transform="scale(0.015625)"/>
       <path id="DejaVuSans-77" d="M 269 3500 
L 844 3500 
L 1563 769 
L 2278 3500 
L 2956 3500 
L 3675 769 
L 4391 3500 
L 4966 3500 
L 4050 0 
L 3372 0 
L 2619 2869 
L 1863 0 
L 1184 0 
L 269 3500 
z
" transform="scale(0.015625)"/>
       <path id="DejaVuSans-6f" d="M 1959 3097 
Q 1497 3097 1228 2736 
Q 959 2375 959 1747 
Q 959 1119 1226 758 
Q 1494 397 1959 397 
Q 2419 397 2687 759 
Q 2956 1122 2956 1747 
Q 2956 2369 2687 2733 
Q 2419 3097 1959 3097 
z
M 1959 3584 
Q 2709 3584 3137 3096 
Q 3566 2609 3566 1747 
Q 3566 888 3137 398 
Q 2709 -91 1959 -91 
Q 1206 -91 779 398 
Q 353 888 353 1747 
Q 353 2609 779 3096 
Q 1206 3584 1959 3584 
z
" transform="scale(0.015625)"/>
       <path id="DejaVuSans-64" d="M 2906 2969 
L 2906 4863 
L 3481 4863 
L 3481 0 
L 2906 0 
L 2906 525 
Q 2725 213 2448 61 
Q 2172 -91 1784 -91 
Q 1150 -91 751 415 
Q 353 922 353 1747 
Q 353 2572 751 3078 
Q 1150 3584 1784 3584 
Q 2172 3584 2448 3432 
Q 2725 3281 2906 2969 
z
M 947 1747 
Q 947 1113 1208 752 
Q 1469 391 1925 391 
Q 2381 391 2643 752 
Q 2906 1113 2906 1747 
Q 2906 2381 2643 2742 
Q 2381 3103 1925 3103 
Q 1469 3103 1208 2742 
Q 947 2381 947 1747 
z
" transform="scale(0.015625)"/>
       <path id="DejaVuSans-53" d="M 3425 4513 
L 3425 3897 
Q 3066 4069 2747 4153 
Q 2428 4238 2131 4238 
Q 1616 4238 1336 4038 
Q 1056 3838 1056 3469 
Q 1056 3159 1242 3001 
Q 1428 2844 1947 2747 
L 2328 2669 
Q 3034 2534 3370 2195 
Q 3706 1856 3706 1288 
Q 3706 609 3251 259 
Q 2797 -91 1919 -91 
Q 1588 -91 1214 -16 
Q 841 59 441 206 
L 441 856 
Q 825 641 1194 531 
Q 1563 422 1919 422 
Q 2459 422 2753 634 
Q 3047 847 3047 1241 
Q 3047 1584 2836 1778 
Q 2625 1972 2144 2069 
L 1759 2144 
Q 1053 2284 737 2584 
Q 422 2884 422 3419 
Q 422 4038 858 4394 
Q 1294 4750 2059 4750 
Q 2388 4750 2728 4690 
Q 3069 4631 3425 4513 
z
" transform="scale(0.015625)"/>
       <path id="DejaVuSans-63" d="M 3122 3366 
L 3122 2828 
Q 2878 2963 2633 3030 
Q 2388 3097 2138 3097 
Q 1578 3097 1268 2742 
Q 959 2388 959 1747 
Q 959 1106 1268 751 
Q 1578 397 2138 397 
Q 2388 397 2633 464 
Q 2878 531 3122 666 
L 3122 134 
Q 2881 22 2623 -34 
Q 2366 -91 2075 -91 
Q 1284 -91 818 406 
Q 353 903 353 1747 
Q 353 2603 823 3093 
Q 1294 3584 2113 3584 
Q 2378 3584 2631 3529 
Q 2884 3475 3122 3366 
z
" transform="scale(0.015625)"/>
      </defs>
      <use xlink:href="#DejaVuSans-72"/>
      <use xlink:href="#DejaVuSans-65" x="38.863281"/>
      <use xlink:href="#DejaVuSans-61" x="100.386719"/>
      <use xlink:href="#DejaVuSans-6c" x="161.666016"/>
      <use xlink:href="#DejaVuSans-2d" x="189.449219"/>
      <use xlink:href="#DejaVuSans-77" x="225.533203"/>
      <use xlink:href="#DejaVuSans-6f" x="307.320312"/>
      <use xlink:href="#DejaVuSans-72" x="368.501953"/>
      <use xlink:href="#DejaVuSans-6c" x="409.615234"/>
      <use xlink:href="#DejaVuSans-64" x="437.398438"/>
      <use xlink:href="#DejaVuSans-20" x="500.875"/>
      <use xlink:href="#DejaVuSans-53" x="532.662109"/>
      <use xlink:href="#DejaVuSans-63" x="596.138672"/>
      <use xlink:href="#DejaVuSans-65" x="651.119141"/>
      <use xlink:href="#DejaVuSans-6e" x="712.642578"/>
      <use xlink:href="#DejaVuSans-61" x="776.021484"/>
      <use xlink:href="#DejaVuSans-72" x="837.300781"/>
      <use xlink:href="#DejaVuSans-69" x="878.414062"/>
      <use xlink:href="#DejaVuSans-6f" x="906.197266"/>
      <use xlink:href="#DejaVuSans-73" x="967.378906"/>
     </g>
    </g>
    <g id="patch_9">
     <path d="M 311.051562 42.076563 
L 331.051562 42.076563 
L 331.051562 35.076563 
L 311.051562 35.076563 
z
" style="fill: #ff7f0e; fill-opacity: 0.25; stroke: #ff7f0e; stroke-linejoin: miter"/>
    </g>
    <g id="text_17">
     <!-- derived Scenarios -->
     <g transform="translate(339.051562 42.076563)scale(0.1 -0.1)">
      <defs>
       <path id="DejaVuSans-76" d="M 191 3500 
L 800 3500 
L 1894 563 
L 2988 3500 
L 3597 3500 
L 2284 0 
L 1503 0 
L 191 3500 
z
" transform="scale(0.015625)"/>
      </defs>
      <use xlink:href="#DejaVuSans-64"/>
      <use xlink:href="#DejaVuSans-65" x="63.476562"/>
      <use xlink:href="#DejaVuSans-72" x="125"/>
      <use xlink:href="#DejaVuSans-69" x="166.113281"/>
      <use xlink:href="#DejaVuSans-76" x="193.896484"/>
      <use xlink:href="#DejaVuSans-65" x="253.076172"/>
      <use xlink:href="#DejaVuSans-64" x="314.599609"/>
      <use xlink:href="#DejaVuSans-20" x="378.076172"/>
      <use xlink:href="#DejaVuSans-53" x="409.863281"/>
      <use xlink:href="#DejaVuSans-63" x="473.339844"/>
      <use xlink:href="#DejaVuSans-65" x="528.320312"/>
      <use xlink:href="#DejaVuSans-6e" x="589.84375"/>
      <use xlink:href="#DejaVuSans-61" x="653.222656"/>
      <use xlink:href="#DejaVuSans-72" x="714.501953"/>
      <use xlink:href="#DejaVuSans-69" x="755.615234"/>
      <use xlink:href="#DejaVuSans-6f" x="783.398438"/>
      <use xlink:href="#DejaVuSans-73" x="844.580078"/>
     </g>
    </g>
   </g>
  </g>
 </g>
 <defs>
  <clipPath id="pc8dc0df2f3">
   <rect x="47.72" y="10.8" width="402.28" height="292.84"/>
  </clipPath>
 </defs>
</svg>
