<?xml version="1.0" encoding="utf-8" standalone="no"?>
<!DOCTYPE svg PUBLIC "-//W3C//DTD SVG 1.1//EN"
  "http://www.w3.org/Graphics/SVG/1.1/DTD/svg11.dtd">
<svg xmlns:xlink="http://www.w3.org/1999/xlink" width="460.8pt" height="345.6pt" viewBox="0 0 460.8 345.6" xmlns="http://www.w3.org/2000/svg" version="1.1">
 <metadata>
  <rdf:RDF xmlns:dc="http://purl.org/dc/elements/1.1/" xmlns:cc="http://creativecommons.org/ns#" xmlns:rdf="http://www.w3.org/1999/02/22-rdf-syntax-ns#">
   <cc:Work>
    <dc:type rdf:resource="http://purl.org/dc/dcmitype/StillImage"/>
    <dc:date>2023-08-19T11:23:05.797665</dc:date>
    <dc:format>image/svg+xml</dc:format>
    <dc:creator>
     <cc:Agent>
      <dc:title>Matplotlib v3.5.3, https://matplotlib.org/</dc:title>
     </cc:Agent>
    </dc:creator>
   </cc:Work>
  </rdf:RDF>
 </metadata>
 <defs>
  <style type="text/css">*{stroke-linejoin: round; stroke-linecap: butt}</style>
 </defs>
 <g id="figure_1">
  <g id="patch_1">
   <path d="M 0 345.6 
L 460.8 345.6 
L 460.8 0 
L 0 0 
z
" style="fill: #ffffff"/>
  </g>
  <g id="axes_1">
   <g id="patch_2">
    <path d="M 55.19 313.4 
L 450 313.4 
L 450 14.76 
L 55.19 14.76 
z
" style="fill: #ffffff"/>
   </g>
   <g id="matplotlib.axis_1">
    <g id="xtick_1">
     <g id="line2d_1">
      <defs>
       <path id="m415e2e747d" d="M 0 0 
L 0 3.5 
" style="stroke: #000000; stroke-width: 0.8"/>
      </defs>
      <g>
       <use xlink:href="#m415e2e747d" x="147.312333" y="313.4" style="stroke: #000000; stroke-width: 0.8"/>
      </g>
     </g>
     <g id="text_1">
      <!-- Safety -->
      <g transform="translate(121.721083 332.5575)scale(0.16 -0.16)">
       <defs>
        <path id="DejaVuSans-53" d="M 3425 4513 
L 3425 3897 
Q 3066 4069 2747 4153 
Q 2428 4238 2131 4238 
Q 1616 4238 1336 4038 
Q 1056 3838 1056 3469 
Q 1056 3159 1242 3001 
Q 1428 2844 1947 2747 
L 2328 2669 
Q 3034 2534 3370 2195 
Q 3706 1856 3706 1288 
Q 3706 609 3251 259 
Q 2797 -91 1919 -91 
Q 1588 -91 1214 -16 
Q 841 59 441 206 
L 441 856 
Q 825 641 1194 531 
Q 1563 422 1919 422 
Q 2459 422 2753 634 
Q 3047 847 3047 1241 
Q 3047 1584 2836 1778 
Q 2625 1972 2144 2069 
L 1759 2144 
Q 1053 2284 737 2584 
Q 422 2884 422 3419 
Q 422 4038 858 4394 
Q 1294 4750 2059 4750 
Q 2388 4750 2728 4690 
Q 3069 4631 3425 4513 
z
" transform="scale(0.015625)"/>
        <path id="DejaVuSans-61" d="M 2194 1759 
Q 1497 1759 1228 1600 
Q 959 1441 959 1056 
Q 959 750 1161 570 
Q 1363 391 1709 391 
Q 2188 391 2477 730 
Q 2766 1069 2766 1631 
L 2766 1759 
L 2194 1759 
z
M 3341 1997 
L 3341 0 
L 2766 0 
L 2766 531 
Q 2569 213 2275 61 
Q 1981 -91 1556 -91 
Q 1019 -91 701 211 
Q 384 513 384 1019 
Q 384 1609 779 1909 
Q 1175 2209 1959 2209 
L 2766 2209 
L 2766 2266 
Q 2766 2663 2505 2880 
Q 2244 3097 1772 3097 
Q 1472 3097 1187 3025 
Q 903 2953 641 2809 
L 641 3341 
Q 956 3463 1253 3523 
Q 1550 3584 1831 3584 
Q 2591 3584 2966 3190 
Q 3341 2797 3341 1997 
z
" transform="scale(0.015625)"/>
        <path id="DejaVuSans-66" d="M 2375 4863 
L 2375 4384 
L 1825 4384 
Q 1516 4384 1395 4259 
Q 1275 4134 1275 3809 
L 1275 3500 
L 2222 3500 
L 2222 3053 
L 1275 3053 
L 1275 0 
L 697 0 
L 697 3053 
L 147 3053 
L 147 3500 
L 697 3500 
L 697 3744 
Q 697 4328 969 4595 
Q 1241 4863 1831 4863 
L 2375 4863 
z
" transform="scale(0.015625)"/>
        <path id="DejaVuSans-65" d="M 3597 1894 
L 3597 1613 
L 953 1613 
Q 991 1019 1311 708 
Q 1631 397 2203 397 
Q 2534 397 2845 478 
Q 3156 559 3463 722 
L 3463 178 
Q 3153 47 2828 -22 
Q 2503 -91 2169 -91 
Q 1331 -91 842 396 
Q 353 884 353 1716 
Q 353 2575 817 3079 
Q 1281 3584 2069 3584 
Q 2775 3584 3186 3129 
Q 3597 2675 3597 1894 
z
M 3022 2063 
Q 3016 2534 2758 2815 
Q 2500 3097 2075 3097 
Q 1594 3097 1305 2825 
Q 1016 2553 972 2059 
L 3022 2063 
z
" transform="scale(0.015625)"/>
        <path id="DejaVuSans-74" d="M 1172 4494 
L 1172 3500 
L 2356 3500 
L 2356 3053 
L 1172 3053 
L 1172 1153 
Q 1172 725 1289 603 
Q 1406 481 1766 481 
L 2356 481 
L 2356 0 
L 1766 0 
Q 1100 0 847 248 
Q 594 497 594 1153 
L 594 3053 
L 172 3053 
L 172 3500 
L 594 3500 
L 594 4494 
L 1172 4494 
z
" transform="scale(0.015625)"/>
        <path id="DejaVuSans-79" d="M 2059 -325 
Q 1816 -950 1584 -1140 
Q 1353 -1331 966 -1331 
L 506 -1331 
L 506 -850 
L 844 -850 
Q 1081 -850 1212 -737 
Q 1344 -625 1503 -206 
L 1606 56 
L 191 3500 
L 800 3500 
L 1894 763 
L 2988 3500 
L 3597 3500 
L 2059 -325 
z
" transform="scale(0.015625)"/>
       </defs>
       <use xlink:href="#DejaVuSans-53"/>
       <use xlink:href="#DejaVuSans-61" x="63.476562"/>
       <use xlink:href="#DejaVuSans-66" x="124.755859"/>
       <use xlink:href="#DejaVuSans-65" x="159.960938"/>
       <use xlink:href="#DejaVuSans-74" x="221.484375"/>
       <use xlink:href="#DejaVuSans-79" x="260.693359"/>
      </g>
     </g>
    </g>
    <g id="xtick_2">
     <g id="line2d_2">
      <g>
       <use xlink:href="#m415e2e747d" x="226.274333" y="313.4" style="stroke: #000000; stroke-width: 0.8"/>
      </g>
     </g>
     <g id="text_2">
      <!-- Efficiency -->
      <g transform="translate(187.616833 332.5575)scale(0.16 -0.16)">
       <defs>
        <path id="DejaVuSans-45" d="M 628 4666 
L 3578 4666 
L 3578 4134 
L 1259 4134 
L 1259 2753 
L 3481 2753 
L 3481 2222 
L 1259 2222 
L 1259 531 
L 3634 531 
L 3634 0 
L 628 0 
L 628 4666 
z
" transform="scale(0.015625)"/>
        <path id="DejaVuSans-69" d="M 603 3500 
L 1178 3500 
L 1178 0 
L 603 0 
L 603 3500 
z
M 603 4863 
L 1178 4863 
L 1178 4134 
L 603 4134 
L 603 4863 
z
" transform="scale(0.015625)"/>
        <path id="DejaVuSans-63" d="M 3122 3366 
L 3122 2828 
Q 2878 2963 2633 3030 
Q 2388 3097 2138 3097 
Q 1578 3097 1268 2742 
Q 959 2388 959 1747 
Q 959 1106 1268 751 
Q 1578 397 2138 397 
Q 2388 397 2633 464 
Q 2878 531 3122 666 
L 3122 134 
Q 2881 22 2623 -34 
Q 2366 -91 2075 -91 
Q 1284 -91 818 406 
Q 353 903 353 1747 
Q 353 2603 823 3093 
Q 1294 3584 2113 3584 
Q 2378 3584 2631 3529 
Q 2884 3475 3122 3366 
z
" transform="scale(0.015625)"/>
        <path id="DejaVuSans-6e" d="M 3513 2113 
L 3513 0 
L 2938 0 
L 2938 2094 
Q 2938 2591 2744 2837 
Q 2550 3084 2163 3084 
Q 1697 3084 1428 2787 
Q 1159 2491 1159 1978 
L 1159 0 
L 581 0 
L 581 3500 
L 1159 3500 
L 1159 2956 
Q 1366 3272 1645 3428 
Q 1925 3584 2291 3584 
Q 2894 3584 3203 3211 
Q 3513 2838 3513 2113 
z
" transform="scale(0.015625)"/>
       </defs>
       <use xlink:href="#DejaVuSans-45"/>
       <use xlink:href="#DejaVuSans-66" x="63.183594"/>
       <use xlink:href="#DejaVuSans-66" x="98.388672"/>
       <use xlink:href="#DejaVuSans-69" x="133.59375"/>
       <use xlink:href="#DejaVuSans-63" x="161.376953"/>
       <use xlink:href="#DejaVuSans-69" x="216.357422"/>
       <use xlink:href="#DejaVuSans-65" x="244.140625"/>
       <use xlink:href="#DejaVuSans-6e" x="305.664062"/>
       <use xlink:href="#DejaVuSans-63" x="369.042969"/>
       <use xlink:href="#DejaVuSans-79" x="424.023438"/>
      </g>
     </g>
    </g>
    <g id="xtick_3">
     <g id="line2d_3">
      <g>
       <use xlink:href="#m415e2e747d" x="305.236333" y="313.4" style="stroke: #000000; stroke-width: 0.8"/>
      </g>
     </g>
     <g id="text_3">
      <!-- Comfort -->
      <g transform="translate(272.826333 332.5575)scale(0.16 -0.16)">
       <defs>
        <path id="DejaVuSans-43" d="M 4122 4306 
L 4122 3641 
Q 3803 3938 3442 4084 
Q 3081 4231 2675 4231 
Q 1875 4231 1450 3742 
Q 1025 3253 1025 2328 
Q 1025 1406 1450 917 
Q 1875 428 2675 428 
Q 3081 428 3442 575 
Q 3803 722 4122 1019 
L 4122 359 
Q 3791 134 3420 21 
Q 3050 -91 2638 -91 
Q 1578 -91 968 557 
Q 359 1206 359 2328 
Q 359 3453 968 4101 
Q 1578 4750 2638 4750 
Q 3056 4750 3426 4639 
Q 3797 4528 4122 4306 
z
" transform="scale(0.015625)"/>
        <path id="DejaVuSans-6f" d="M 1959 3097 
Q 1497 3097 1228 2736 
Q 959 2375 959 1747 
Q 959 1119 1226 758 
Q 1494 397 1959 397 
Q 2419 397 2687 759 
Q 2956 1122 2956 1747 
Q 2956 2369 2687 2733 
Q 2419 3097 1959 3097 
z
M 1959 3584 
Q 2709 3584 3137 3096 
Q 3566 2609 3566 1747 
Q 3566 888 3137 398 
Q 2709 -91 1959 -91 
Q 1206 -91 779 398 
Q 353 888 353 1747 
Q 353 2609 779 3096 
Q 1206 3584 1959 3584 
z
" transform="scale(0.015625)"/>
        <path id="DejaVuSans-6d" d="M 3328 2828 
Q 3544 3216 3844 3400 
Q 4144 3584 4550 3584 
Q 5097 3584 5394 3201 
Q 5691 2819 5691 2113 
L 5691 0 
L 5113 0 
L 5113 2094 
Q 5113 2597 4934 2840 
Q 4756 3084 4391 3084 
Q 3944 3084 3684 2787 
Q 3425 2491 3425 1978 
L 3425 0 
L 2847 0 
L 2847 2094 
Q 2847 2600 2669 2842 
Q 2491 3084 2119 3084 
Q 1678 3084 1418 2786 
Q 1159 2488 1159 1978 
L 1159 0 
L 581 0 
L 581 3500 
L 1159 3500 
L 1159 2956 
Q 1356 3278 1631 3431 
Q 1906 3584 2284 3584 
Q 2666 3584 2933 3390 
Q 3200 3197 3328 2828 
z
" transform="scale(0.015625)"/>
        <path id="DejaVuSans-72" d="M 2631 2963 
Q 2534 3019 2420 3045 
Q 2306 3072 2169 3072 
Q 1681 3072 1420 2755 
Q 1159 2438 1159 1844 
L 1159 0 
L 581 0 
L 581 3500 
L 1159 3500 
L 1159 2956 
Q 1341 3275 1631 3429 
Q 1922 3584 2338 3584 
Q 2397 3584 2469 3576 
Q 2541 3569 2628 3553 
L 2631 2963 
z
" transform="scale(0.015625)"/>
       </defs>
       <use xlink:href="#DejaVuSans-43"/>
       <use xlink:href="#DejaVuSans-6f" x="69.824219"/>
       <use xlink:href="#DejaVuSans-6d" x="131.005859"/>
       <use xlink:href="#DejaVuSans-66" x="228.417969"/>
       <use xlink:href="#DejaVuSans-6f" x="263.623047"/>
       <use xlink:href="#DejaVuSans-72" x="324.804688"/>
       <use xlink:href="#DejaVuSans-74" x="365.917969"/>
      </g>
     </g>
    </g>
    <g id="xtick_4">
     <g id="line2d_4">
      <g>
       <use xlink:href="#m415e2e747d" x="384.198333" y="313.4" style="stroke: #000000; stroke-width: 0.8"/>
      </g>
     </g>
     <g id="text_4">
      <!-- Total -->
      <g transform="translate(365.515833 332.5575)scale(0.16 -0.16)">
       <defs>
        <path id="DejaVuSans-54" d="M -19 4666 
L 3928 4666 
L 3928 4134 
L 2272 4134 
L 2272 0 
L 1638 0 
L 1638 4134 
L -19 4134 
L -19 4666 
z
" transform="scale(0.015625)"/>
        <path id="DejaVuSans-6c" d="M 603 4863 
L 1178 4863 
L 1178 0 
L 603 0 
L 603 4863 
z
" transform="scale(0.015625)"/>
       </defs>
       <use xlink:href="#DejaVuSans-54"/>
       <use xlink:href="#DejaVuSans-6f" x="44.083984"/>
       <use xlink:href="#DejaVuSans-74" x="105.265625"/>
       <use xlink:href="#DejaVuSans-61" x="144.474609"/>
       <use xlink:href="#DejaVuSans-6c" x="205.753906"/>
      </g>
     </g>
    </g>
   </g>
   <g id="matplotlib.axis_2">
    <g id="ytick_1">
     <g id="line2d_5">
      <path d="M 55.19 313.4 
L 450 313.4 
" clip-path="url(#pba18d4e8bb)" style="fill: none; stroke-dasharray: 2.96,1.28; stroke-dashoffset: 0; stroke: #b0b0b0; stroke-opacity: 0.8; stroke-width: 0.8"/>
     </g>
     <g id="line2d_6">
      <defs>
       <path id="mc68b864050" d="M 0 0 
L -3.5 0 
" style="stroke: #000000; stroke-width: 0.8"/>
      </defs>
      <g>
       <use xlink:href="#mc68b864050" x="55.19" y="313.4" style="stroke: #000000; stroke-width: 0.8"/>
      </g>
     </g>
     <g id="text_5">
      <!-- 0 -->
      <g transform="translate(41.8275 317.199219)scale(0.1 -0.1)">
       <defs>
        <path id="DejaVuSans-30" d="M 2034 4250 
Q 1547 4250 1301 3770 
Q 1056 3291 1056 2328 
Q 1056 1369 1301 889 
Q 1547 409 2034 409 
Q 2525 409 2770 889 
Q 3016 1369 3016 2328 
Q 3016 3291 2770 3770 
Q 2525 4250 2034 4250 
z
M 2034 4750 
Q 2819 4750 3233 4129 
Q 3647 3509 3647 2328 
Q 3647 1150 3233 529 
Q 2819 -91 2034 -91 
Q 1250 -91 836 529 
Q 422 1150 422 2328 
Q 422 3509 836 4129 
Q 1250 4750 2034 4750 
z
" transform="scale(0.015625)"/>
       </defs>
       <use xlink:href="#DejaVuSans-30"/>
      </g>
     </g>
    </g>
    <g id="ytick_2">
     <g id="line2d_7">
      <path d="M 55.19 253.672 
L 450 253.672 
" clip-path="url(#pba18d4e8bb)" style="fill: none; stroke-dasharray: 2.96,1.28; stroke-dashoffset: 0; stroke: #b0b0b0; stroke-opacity: 0.8; stroke-width: 0.8"/>
     </g>
     <g id="line2d_8">
      <g>
       <use xlink:href="#mc68b864050" x="55.19" y="253.672" style="stroke: #000000; stroke-width: 0.8"/>
      </g>
     </g>
     <g id="text_6">
      <!-- 20 -->
      <g transform="translate(35.465 257.471219)scale(0.1 -0.1)">
       <defs>
        <path id="DejaVuSans-32" d="M 1228 531 
L 3431 531 
L 3431 0 
L 469 0 
L 469 531 
Q 828 903 1448 1529 
Q 2069 2156 2228 2338 
Q 2531 2678 2651 2914 
Q 2772 3150 2772 3378 
Q 2772 3750 2511 3984 
Q 2250 4219 1831 4219 
Q 1534 4219 1204 4116 
Q 875 4013 500 3803 
L 500 4441 
Q 881 4594 1212 4672 
Q 1544 4750 1819 4750 
Q 2544 4750 2975 4387 
Q 3406 4025 3406 3419 
Q 3406 3131 3298 2873 
Q 3191 2616 2906 2266 
Q 2828 2175 2409 1742 
Q 1991 1309 1228 531 
z
" transform="scale(0.015625)"/>
       </defs>
       <use xlink:href="#DejaVuSans-32"/>
       <use xlink:href="#DejaVuSans-30" x="63.623047"/>
      </g>
     </g>
    </g>
    <g id="ytick_3">
     <g id="line2d_9">
      <path d="M 55.19 193.944 
L 450 193.944 
" clip-path="url(#pba18d4e8bb)" style="fill: none; stroke-dasharray: 2.96,1.28; stroke-dashoffset: 0; stroke: #b0b0b0; stroke-opacity: 0.8; stroke-width: 0.8"/>
     </g>
     <g id="line2d_10">
      <g>
       <use xlink:href="#mc68b864050" x="55.19" y="193.944" style="stroke: #000000; stroke-width: 0.8"/>
      </g>
     </g>
     <g id="text_7">
      <!-- 40 -->
      <g transform="translate(35.465 197.743219)scale(0.1 -0.1)">
       <defs>
        <path id="DejaVuSans-34" d="M 2419 4116 
L 825 1625 
L 2419 1625 
L 2419 4116 
z
M 2253 4666 
L 3047 4666 
L 3047 1625 
L 3713 1625 
L 3713 1100 
L 3047 1100 
L 3047 0 
L 2419 0 
L 2419 1100 
L 313 1100 
L 313 1709 
L 2253 4666 
z
" transform="scale(0.015625)"/>
       </defs>
       <use xlink:href="#DejaVuSans-34"/>
       <use xlink:href="#DejaVuSans-30" x="63.623047"/>
      </g>
     </g>
    </g>
    <g id="ytick_4">
     <g id="line2d_11">
      <path d="M 55.19 134.216 
L 450 134.216 
" clip-path="url(#pba18d4e8bb)" style="fill: none; stroke-dasharray: 2.96,1.28; stroke-dashoffset: 0; stroke: #b0b0b0; stroke-opacity: 0.8; stroke-width: 0.8"/>
     </g>
     <g id="line2d_12">
      <g>
       <use xlink:href="#mc68b864050" x="55.19" y="134.216" style="stroke: #000000; stroke-width: 0.8"/>
      </g>
     </g>
     <g id="text_8">
      <!-- 60 -->
      <g transform="translate(35.465 138.015219)scale(0.1 -0.1)">
       <defs>
        <path id="DejaVuSans-36" d="M 2113 2584 
Q 1688 2584 1439 2293 
Q 1191 2003 1191 1497 
Q 1191 994 1439 701 
Q 1688 409 2113 409 
Q 2538 409 2786 701 
Q 3034 994 3034 1497 
Q 3034 2003 2786 2293 
Q 2538 2584 2113 2584 
z
M 3366 4563 
L 3366 3988 
Q 3128 4100 2886 4159 
Q 2644 4219 2406 4219 
Q 1781 4219 1451 3797 
Q 1122 3375 1075 2522 
Q 1259 2794 1537 2939 
Q 1816 3084 2150 3084 
Q 2853 3084 3261 2657 
Q 3669 2231 3669 1497 
Q 3669 778 3244 343 
Q 2819 -91 2113 -91 
Q 1303 -91 875 529 
Q 447 1150 447 2328 
Q 447 3434 972 4092 
Q 1497 4750 2381 4750 
Q 2619 4750 2861 4703 
Q 3103 4656 3366 4563 
z
" transform="scale(0.015625)"/>
       </defs>
       <use xlink:href="#DejaVuSans-36"/>
       <use xlink:href="#DejaVuSans-30" x="63.623047"/>
      </g>
     </g>
    </g>
    <g id="ytick_5">
     <g id="line2d_13">
      <path d="M 55.19 74.488 
L 450 74.488 
" clip-path="url(#pba18d4e8bb)" style="fill: none; stroke-dasharray: 2.96,1.28; stroke-dashoffset: 0; stroke: #b0b0b0; stroke-opacity: 0.8; stroke-width: 0.8"/>
     </g>
     <g id="line2d_14">
      <g>
       <use xlink:href="#mc68b864050" x="55.19" y="74.488" style="stroke: #000000; stroke-width: 0.8"/>
      </g>
     </g>
     <g id="text_9">
      <!-- 80 -->
      <g transform="translate(35.465 78.287219)scale(0.1 -0.1)">
       <defs>
        <path id="DejaVuSans-38" d="M 2034 2216 
Q 1584 2216 1326 1975 
Q 1069 1734 1069 1313 
Q 1069 891 1326 650 
Q 1584 409 2034 409 
Q 2484 409 2743 651 
Q 3003 894 3003 1313 
Q 3003 1734 2745 1975 
Q 2488 2216 2034 2216 
z
M 1403 2484 
Q 997 2584 770 2862 
Q 544 3141 544 3541 
Q 544 4100 942 4425 
Q 1341 4750 2034 4750 
Q 2731 4750 3128 4425 
Q 3525 4100 3525 3541 
Q 3525 3141 3298 2862 
Q 3072 2584 2669 2484 
Q 3125 2378 3379 2068 
Q 3634 1759 3634 1313 
Q 3634 634 3220 271 
Q 2806 -91 2034 -91 
Q 1263 -91 848 271 
Q 434 634 434 1313 
Q 434 1759 690 2068 
Q 947 2378 1403 2484 
z
M 1172 3481 
Q 1172 3119 1398 2916 
Q 1625 2713 2034 2713 
Q 2441 2713 2670 2916 
Q 2900 3119 2900 3481 
Q 2900 3844 2670 4047 
Q 2441 4250 2034 4250 
Q 1625 4250 1398 4047 
Q 1172 3844 1172 3481 
z
" transform="scale(0.015625)"/>
       </defs>
       <use xlink:href="#DejaVuSans-38"/>
       <use xlink:href="#DejaVuSans-30" x="63.623047"/>
      </g>
     </g>
    </g>
    <g id="ytick_6">
     <g id="line2d_15">
      <path d="M 55.19 14.76 
L 450 14.76 
" clip-path="url(#pba18d4e8bb)" style="fill: none; stroke-dasharray: 2.96,1.28; stroke-dashoffset: 0; stroke: #b0b0b0; stroke-opacity: 0.8; stroke-width: 0.8"/>
     </g>
     <g id="line2d_16">
      <g>
       <use xlink:href="#mc68b864050" x="55.19" y="14.76" style="stroke: #000000; stroke-width: 0.8"/>
      </g>
     </g>
     <g id="text_10">
      <!-- 100 -->
      <g transform="translate(29.1025 18.559219)scale(0.1 -0.1)">
       <defs>
        <path id="DejaVuSans-31" d="M 794 531 
L 1825 531 
L 1825 4091 
L 703 3866 
L 703 4441 
L 1819 4666 
L 2450 4666 
L 2450 531 
L 3481 531 
L 3481 0 
L 794 0 
L 794 531 
z
" transform="scale(0.015625)"/>
       </defs>
       <use xlink:href="#DejaVuSans-31"/>
       <use xlink:href="#DejaVuSans-30" x="63.623047"/>
       <use xlink:href="#DejaVuSans-30" x="127.246094"/>
      </g>
     </g>
    </g>
    <g id="text_11">
     <!-- Scores -->
     <g transform="translate(21.775 190.65125)rotate(-90)scale(0.16 -0.16)">
      <defs>
       <path id="DejaVuSans-73" d="M 2834 3397 
L 2834 2853 
Q 2591 2978 2328 3040 
Q 2066 3103 1784 3103 
Q 1356 3103 1142 2972 
Q 928 2841 928 2578 
Q 928 2378 1081 2264 
Q 1234 2150 1697 2047 
L 1894 2003 
Q 2506 1872 2764 1633 
Q 3022 1394 3022 966 
Q 3022 478 2636 193 
Q 2250 -91 1575 -91 
Q 1294 -91 989 -36 
Q 684 19 347 128 
L 347 722 
Q 666 556 975 473 
Q 1284 391 1588 391 
Q 1994 391 2212 530 
Q 2431 669 2431 922 
Q 2431 1156 2273 1281 
Q 2116 1406 1581 1522 
L 1381 1569 
Q 847 1681 609 1914 
Q 372 2147 372 2553 
Q 372 3047 722 3315 
Q 1072 3584 1716 3584 
Q 2034 3584 2315 3537 
Q 2597 3491 2834 3397 
z
" transform="scale(0.015625)"/>
      </defs>
      <use xlink:href="#DejaVuSans-53"/>
      <use xlink:href="#DejaVuSans-63" x="63.476562"/>
      <use xlink:href="#DejaVuSans-6f" x="118.457031"/>
      <use xlink:href="#DejaVuSans-72" x="179.638672"/>
      <use xlink:href="#DejaVuSans-65" x="218.501953"/>
      <use xlink:href="#DejaVuSans-73" x="280.025391"/>
     </g>
    </g>
   </g>
   <g id="patch_3">
    <path d="M 127.571833 164.08 
L 140.732167 164.08 
L 140.732167 164.08 
L 127.571833 164.08 
L 127.571833 164.08 
z
" clip-path="url(#pba18d4e8bb)" style="fill: #1f77b4; stroke: #808080; stroke-width: 0.5; stroke-linejoin: miter"/>
   </g>
   <g id="line2d_17">
    <path d="M 134.152 164.08 
L 134.152 313.4 
" clip-path="url(#pba18d4e8bb)" style="fill: none; stroke: #000000; stroke-linecap: square"/>
   </g>
   <g id="line2d_18">
    <path d="M 134.152 164.08 
L 134.152 164.08 
" clip-path="url(#pba18d4e8bb)" style="fill: none; stroke: #000000; stroke-linecap: square"/>
   </g>
   <g id="line2d_19">
    <path d="M 130.861917 313.4 
L 137.442083 313.4 
" clip-path="url(#pba18d4e8bb)" style="fill: none; stroke: #000000; stroke-linecap: square"/>
   </g>
   <g id="line2d_20">
    <path d="M 130.861917 164.08 
L 137.442083 164.08 
" clip-path="url(#pba18d4e8bb)" style="fill: none; stroke: #000000; stroke-linecap: square"/>
   </g>
   <g id="patch_4">
    <path d="M 206.533833 297.900584 
L 219.694167 297.900584 
L 219.694167 253.612272 
L 206.533833 253.612272 
L 206.533833 297.900584 
z
" clip-path="url(#pba18d4e8bb)" style="fill: #1f77b4; stroke: #808080; stroke-width: 0.5; stroke-linejoin: miter"/>
   </g>
   <g id="line2d_21">
    <path d="M 213.114 297.900584 
L 213.114 311.578296 
" clip-path="url(#pba18d4e8bb)" style="fill: none; stroke: #000000; stroke-linecap: square"/>
   </g>
   <g id="line2d_22">
    <path d="M 213.114 253.612272 
L 213.114 247.310968 
" clip-path="url(#pba18d4e8bb)" style="fill: none; stroke: #000000; stroke-linecap: square"/>
   </g>
   <g id="line2d_23">
    <path d="M 209.823917 311.578296 
L 216.404083 311.578296 
" clip-path="url(#pba18d4e8bb)" style="fill: none; stroke: #000000; stroke-linecap: square"/>
   </g>
   <g id="line2d_24">
    <path d="M 209.823917 247.310968 
L 216.404083 247.310968 
" clip-path="url(#pba18d4e8bb)" style="fill: none; stroke: #000000; stroke-linecap: square"/>
   </g>
   <g id="patch_5">
    <path d="M 285.495833 254.508192 
L 298.656167 254.508192 
L 298.656167 253.791456 
L 285.495833 253.791456 
L 285.495833 254.508192 
z
" clip-path="url(#pba18d4e8bb)" style="fill: #1f77b4; stroke: #808080; stroke-width: 0.5; stroke-linejoin: miter"/>
   </g>
   <g id="line2d_25">
    <path d="M 292.076 254.508192 
L 292.076 255.583296 
" clip-path="url(#pba18d4e8bb)" style="fill: none; stroke: #000000; stroke-linecap: square"/>
   </g>
   <g id="line2d_26">
    <path d="M 292.076 253.791456 
L 292.076 253.672 
" clip-path="url(#pba18d4e8bb)" style="fill: none; stroke: #000000; stroke-linecap: square"/>
   </g>
   <g id="line2d_27">
    <path d="M 288.785917 255.583296 
L 295.366083 255.583296 
" clip-path="url(#pba18d4e8bb)" style="fill: none; stroke: #000000; stroke-linecap: square"/>
   </g>
   <g id="line2d_28">
    <path d="M 288.785917 253.672 
L 295.366083 253.672 
" clip-path="url(#pba18d4e8bb)" style="fill: none; stroke: #000000; stroke-linecap: square"/>
   </g>
   <g id="patch_6">
    <path d="M 364.457833 89.629048 
L 377.618167 89.629048 
L 377.618167 44.862912 
L 364.457833 44.862912 
L 364.457833 89.629048 
z
" clip-path="url(#pba18d4e8bb)" style="fill: #1f77b4; stroke: #808080; stroke-width: 0.5; stroke-linejoin: miter"/>
   </g>
   <g id="line2d_29">
    <path d="M 371.038 89.629048 
L 371.038 107.099488 
" clip-path="url(#pba18d4e8bb)" style="fill: none; stroke: #000000; stroke-linecap: square"/>
   </g>
   <g id="line2d_30">
    <path d="M 371.038 44.862912 
L 371.038 38.262968 
" clip-path="url(#pba18d4e8bb)" style="fill: none; stroke: #000000; stroke-linecap: square"/>
   </g>
   <g id="line2d_31">
    <path d="M 367.747917 107.099488 
L 374.328083 107.099488 
" clip-path="url(#pba18d4e8bb)" style="fill: none; stroke: #000000; stroke-linecap: square"/>
   </g>
   <g id="line2d_32">
    <path d="M 367.747917 38.262968 
L 374.328083 38.262968 
" clip-path="url(#pba18d4e8bb)" style="fill: none; stroke: #000000; stroke-linecap: square"/>
   </g>
   <g id="patch_7">
    <path d="M 153.8925 164.08 
L 167.052833 164.08 
L 167.052833 164.08 
L 153.8925 164.08 
L 153.8925 164.08 
z
" clip-path="url(#pba18d4e8bb)" style="fill: #ff7f0e; stroke: #808080; stroke-width: 0.5; stroke-linejoin: miter"/>
   </g>
   <g id="line2d_33">
    <path d="M 160.472667 164.08 
L 160.472667 313.4 
" clip-path="url(#pba18d4e8bb)" style="fill: none; stroke: #000000; stroke-linecap: square"/>
   </g>
   <g id="line2d_34">
    <path d="M 160.472667 164.08 
L 160.472667 164.08 
" clip-path="url(#pba18d4e8bb)" style="fill: none; stroke: #000000; stroke-linecap: square"/>
   </g>
   <g id="line2d_35">
    <path d="M 157.182583 313.4 
L 163.76275 313.4 
" clip-path="url(#pba18d4e8bb)" style="fill: none; stroke: #000000; stroke-linecap: square"/>
   </g>
   <g id="line2d_36">
    <path d="M 157.182583 164.08 
L 163.76275 164.08 
" clip-path="url(#pba18d4e8bb)" style="fill: none; stroke: #000000; stroke-linecap: square"/>
   </g>
   <g id="patch_8">
    <path d="M 232.8545 298.16936 
L 246.014833 298.16936 
L 246.014833 254.060232 
L 232.8545 254.060232 
L 232.8545 298.16936 
z
" clip-path="url(#pba18d4e8bb)" style="fill: #ff7f0e; stroke: #808080; stroke-width: 0.5; stroke-linejoin: miter"/>
   </g>
   <g id="line2d_37">
    <path d="M 239.434667 298.16936 
L 239.434667 313.4 
" clip-path="url(#pba18d4e8bb)" style="fill: none; stroke: #000000; stroke-linecap: square"/>
   </g>
   <g id="line2d_38">
    <path d="M 239.434667 254.060232 
L 239.434667 247.310968 
" clip-path="url(#pba18d4e8bb)" style="fill: none; stroke: #000000; stroke-linecap: square"/>
   </g>
   <g id="line2d_39">
    <path d="M 236.144583 313.4 
L 242.72475 313.4 
" clip-path="url(#pba18d4e8bb)" style="fill: none; stroke: #000000; stroke-linecap: square"/>
   </g>
   <g id="line2d_40">
    <path d="M 236.144583 247.310968 
L 242.72475 247.310968 
" clip-path="url(#pba18d4e8bb)" style="fill: none; stroke: #000000; stroke-linecap: square"/>
   </g>
   <g id="patch_9">
    <path d="M 311.8165 254.030368 
L 324.976833 254.030368 
L 324.976833 253.791456 
L 311.8165 253.791456 
L 311.8165 254.030368 
z
" clip-path="url(#pba18d4e8bb)" style="fill: #ff7f0e; stroke: #808080; stroke-width: 0.5; stroke-linejoin: miter"/>
   </g>
   <g id="line2d_41">
    <path d="M 318.396667 254.030368 
L 318.396667 254.388736 
" clip-path="url(#pba18d4e8bb)" style="fill: none; stroke: #000000; stroke-linecap: square"/>
   </g>
   <g id="line2d_42">
    <path d="M 318.396667 253.791456 
L 318.396667 253.672 
" clip-path="url(#pba18d4e8bb)" style="fill: none; stroke: #000000; stroke-linecap: square"/>
   </g>
   <g id="line2d_43">
    <path d="M 315.106583 254.388736 
L 321.68675 254.388736 
" clip-path="url(#pba18d4e8bb)" style="fill: none; stroke: #000000; stroke-linecap: square"/>
   </g>
   <g id="line2d_44">
    <path d="M 315.106583 253.672 
L 321.68675 253.672 
" clip-path="url(#pba18d4e8bb)" style="fill: none; stroke: #000000; stroke-linecap: square"/>
   </g>
   <g id="patch_10">
    <path d="M 390.7785 89.778368 
L 403.938833 89.778368 
L 403.938833 45.251144 
L 390.7785 45.251144 
L 390.7785 89.778368 
z
" clip-path="url(#pba18d4e8bb)" style="fill: #ff7f0e; stroke: #808080; stroke-width: 0.5; stroke-linejoin: miter"/>
   </g>
   <g id="line2d_45">
    <path d="M 397.358667 89.778368 
L 397.358667 149.834872 
" clip-path="url(#pba18d4e8bb)" style="fill: none; stroke: #000000; stroke-linecap: square"/>
   </g>
   <g id="line2d_46">
    <path d="M 397.358667 45.251144 
L 397.358667 38.262968 
" clip-path="url(#pba18d4e8bb)" style="fill: none; stroke: #000000; stroke-linecap: square"/>
   </g>
   <g id="line2d_47">
    <path d="M 394.068583 149.834872 
L 400.64875 149.834872 
" clip-path="url(#pba18d4e8bb)" style="fill: none; stroke: #000000; stroke-linecap: square"/>
   </g>
   <g id="line2d_48">
    <path d="M 394.068583 38.262968 
L 400.64875 38.262968 
" clip-path="url(#pba18d4e8bb)" style="fill: none; stroke: #000000; stroke-linecap: square"/>
   </g>
   <g id="patch_11">
    <path d="M 180.213167 164.08 
L 193.3735 164.08 
L 193.3735 164.08 
L 180.213167 164.08 
L 180.213167 164.08 
z
" clip-path="url(#pba18d4e8bb)" style="fill: #2ca02c; stroke: #808080; stroke-width: 0.5; stroke-linejoin: miter"/>
   </g>
   <g id="line2d_49">
    <path d="M 186.793333 164.08 
L 186.793333 313.4 
" clip-path="url(#pba18d4e8bb)" style="fill: none; stroke: #000000; stroke-linecap: square"/>
   </g>
   <g id="line2d_50">
    <path d="M 186.793333 164.08 
L 186.793333 164.08 
" clip-path="url(#pba18d4e8bb)" style="fill: none; stroke: #000000; stroke-linecap: square"/>
   </g>
   <g id="line2d_51">
    <path d="M 183.50325 313.4 
L 190.083417 313.4 
" clip-path="url(#pba18d4e8bb)" style="fill: none; stroke: #000000; stroke-linecap: square"/>
   </g>
   <g id="line2d_52">
    <path d="M 183.50325 164.08 
L 190.083417 164.08 
" clip-path="url(#pba18d4e8bb)" style="fill: none; stroke: #000000; stroke-linecap: square"/>
   </g>
   <g id="patch_12">
    <path d="M 259.175167 297.960312 
L 272.3355 297.960312 
L 272.3355 293.83908 
L 259.175167 293.83908 
L 259.175167 297.960312 
z
" clip-path="url(#pba18d4e8bb)" style="fill: #2ca02c; stroke: #808080; stroke-width: 0.5; stroke-linejoin: miter"/>
   </g>
   <g id="line2d_53">
    <path d="M 265.755333 297.960312 
L 265.755333 304.082432 
" clip-path="url(#pba18d4e8bb)" style="fill: none; stroke: #000000; stroke-linecap: square"/>
   </g>
   <g id="line2d_54">
    <path d="M 265.755333 293.83908 
L 265.755333 288.46356 
" clip-path="url(#pba18d4e8bb)" style="fill: none; stroke: #000000; stroke-linecap: square"/>
   </g>
   <g id="line2d_55">
    <path d="M 262.46525 304.082432 
L 269.045417 304.082432 
" clip-path="url(#pba18d4e8bb)" style="fill: none; stroke: #000000; stroke-linecap: square"/>
   </g>
   <g id="line2d_56">
    <path d="M 262.46525 288.46356 
L 269.045417 288.46356 
" clip-path="url(#pba18d4e8bb)" style="fill: none; stroke: #000000; stroke-linecap: square"/>
   </g>
   <g id="patch_13">
    <path d="M 338.137167 255.822208 
L 351.2975 255.822208 
L 351.2975 253.910912 
L 338.137167 253.910912 
L 338.137167 255.822208 
z
" clip-path="url(#pba18d4e8bb)" style="fill: #2ca02c; stroke: #808080; stroke-width: 0.5; stroke-linejoin: miter"/>
   </g>
   <g id="line2d_57">
    <path d="M 344.717333 255.822208 
L 344.717333 258.689152 
" clip-path="url(#pba18d4e8bb)" style="fill: none; stroke: #000000; stroke-linecap: square"/>
   </g>
   <g id="line2d_58">
    <path d="M 344.717333 253.910912 
L 344.717333 253.672 
" clip-path="url(#pba18d4e8bb)" style="fill: none; stroke: #000000; stroke-linecap: square"/>
   </g>
   <g id="line2d_59">
    <path d="M 341.42725 258.689152 
L 348.007417 258.689152 
" clip-path="url(#pba18d4e8bb)" style="fill: none; stroke: #000000; stroke-linecap: square"/>
   </g>
   <g id="line2d_60">
    <path d="M 341.42725 253.672 
L 348.007417 253.672 
" clip-path="url(#pba18d4e8bb)" style="fill: none; stroke: #000000; stroke-linecap: square"/>
   </g>
   <g id="patch_14">
    <path d="M 417.099167 90.823608 
L 430.2595 90.823608 
L 430.2595 85.776592 
L 417.099167 85.776592 
L 417.099167 90.823608 
z
" clip-path="url(#pba18d4e8bb)" style="fill: #2ca02c; stroke: #808080; stroke-width: 0.5; stroke-linejoin: miter"/>
   </g>
   <g id="line2d_61">
    <path d="M 423.679333 90.823608 
L 423.679333 98.259744 
" clip-path="url(#pba18d4e8bb)" style="fill: none; stroke: #000000; stroke-linecap: square"/>
   </g>
   <g id="line2d_62">
    <path d="M 423.679333 85.776592 
L 423.679333 81.147672 
" clip-path="url(#pba18d4e8bb)" style="fill: none; stroke: #000000; stroke-linecap: square"/>
   </g>
   <g id="line2d_63">
    <path d="M 420.38925 98.259744 
L 426.969417 98.259744 
" clip-path="url(#pba18d4e8bb)" style="fill: none; stroke: #000000; stroke-linecap: square"/>
   </g>
   <g id="line2d_64">
    <path d="M 420.38925 81.147672 
L 426.969417 81.147672 
" clip-path="url(#pba18d4e8bb)" style="fill: none; stroke: #000000; stroke-linecap: square"/>
   </g>
   <g id="line2d_65">
    <path d="M 127.571833 164.08 
L 140.732167 164.08 
" clip-path="url(#pba18d4e8bb)" style="fill: none; stroke: #000000; stroke-width: 0.5; stroke-linecap: square"/>
   </g>
   <g id="line2d_66">
    <defs>
     <path id="mae6d98df39" d="M -2.5 0 
L 2.5 0 
M 0 2.5 
L 0 -2.5 
" style="stroke: #000000"/>
    </defs>
    <g clip-path="url(#pba18d4e8bb)">
     <use xlink:href="#mae6d98df39" x="134.152" y="164.210716" style="stroke: #000000"/>
    </g>
   </g>
   <g id="line2d_67">
    <path d="M 206.533833 294.675272 
L 219.694167 294.675272 
" clip-path="url(#pba18d4e8bb)" style="fill: none; stroke: #000000; stroke-width: 0.5; stroke-linecap: square"/>
   </g>
   <g id="line2d_68">
    <g clip-path="url(#pba18d4e8bb)">
     <use xlink:href="#mae6d98df39" x="213.114" y="277.725435" style="stroke: #000000"/>
    </g>
   </g>
   <g id="line2d_69">
    <path d="M 285.495833 253.910912 
L 298.656167 253.910912 
" clip-path="url(#pba18d4e8bb)" style="fill: none; stroke: #000000; stroke-width: 0.5; stroke-linecap: square"/>
   </g>
   <g id="line2d_70">
    <g clip-path="url(#pba18d4e8bb)">
     <use xlink:href="#mae6d98df39" x="292.076" y="254.330117" style="stroke: #000000"/>
    </g>
   </g>
   <g id="line2d_71">
    <path d="M 364.457833 86.13496 
L 377.618167 86.13496 
" clip-path="url(#pba18d4e8bb)" style="fill: none; stroke: #000000; stroke-width: 0.5; stroke-linecap: square"/>
   </g>
   <g id="line2d_72">
    <g clip-path="url(#pba18d4e8bb)">
     <use xlink:href="#mae6d98df39" x="371.038" y="69.466276" style="stroke: #000000"/>
    </g>
   </g>
   <g id="line2d_73">
    <path d="M 153.8925 164.08 
L 167.052833 164.08 
" clip-path="url(#pba18d4e8bb)" style="fill: none; stroke: #000000; stroke-width: 0.5; stroke-linecap: square"/>
   </g>
   <g id="line2d_74">
    <g clip-path="url(#pba18d4e8bb)">
     <use xlink:href="#mae6d98df39" x="160.472667" y="164.574893" style="stroke: #000000"/>
    </g>
   </g>
   <g id="line2d_75">
    <path d="M 232.8545 295.511464 
L 246.014833 295.511464 
" clip-path="url(#pba18d4e8bb)" style="fill: none; stroke: #000000; stroke-width: 0.5; stroke-linecap: square"/>
   </g>
   <g id="line2d_76">
    <g clip-path="url(#pba18d4e8bb)">
     <use xlink:href="#mae6d98df39" x="239.434667" y="280.337942" style="stroke: #000000"/>
    </g>
   </g>
   <g id="line2d_77">
    <path d="M 311.8165 253.910912 
L 324.976833 253.910912 
" clip-path="url(#pba18d4e8bb)" style="fill: none; stroke: #000000; stroke-width: 0.5; stroke-linecap: square"/>
   </g>
   <g id="line2d_78">
    <g clip-path="url(#pba18d4e8bb)">
     <use xlink:href="#mae6d98df39" x="318.396667" y="254.284097" style="stroke: #000000"/>
    </g>
   </g>
   <g id="line2d_79">
    <path d="M 390.7785 87.03088 
L 403.938833 87.03088 
" clip-path="url(#pba18d4e8bb)" style="fill: none; stroke: #000000; stroke-width: 0.5; stroke-linecap: square"/>
   </g>
   <g id="line2d_80">
    <g clip-path="url(#pba18d4e8bb)">
     <use xlink:href="#mae6d98df39" x="397.358667" y="72.396931" style="stroke: #000000"/>
    </g>
   </g>
   <g id="line2d_81">
    <path d="M 180.213167 164.08 
L 193.3735 164.08 
" clip-path="url(#pba18d4e8bb)" style="fill: none; stroke: #000000; stroke-width: 0.5; stroke-linecap: square"/>
   </g>
   <g id="line2d_82">
    <g clip-path="url(#pba18d4e8bb)">
     <use xlink:href="#mae6d98df39" x="186.793333" y="166.61008" style="stroke: #000000"/>
    </g>
   </g>
   <g id="line2d_83">
    <path d="M 259.175167 296.616432 
L 272.3355 296.616432 
" clip-path="url(#pba18d4e8bb)" style="fill: none; stroke: #000000; stroke-width: 0.5; stroke-linecap: square"/>
   </g>
   <g id="line2d_84">
    <g clip-path="url(#pba18d4e8bb)">
     <use xlink:href="#mae6d98df39" x="265.755333" y="287.607919" style="stroke: #000000"/>
    </g>
   </g>
   <g id="line2d_85">
    <path d="M 338.137167 254.86656 
L 351.2975 254.86656 
" clip-path="url(#pba18d4e8bb)" style="fill: none; stroke: #000000; stroke-width: 0.5; stroke-linecap: square"/>
   </g>
   <g id="line2d_86">
    <g clip-path="url(#pba18d4e8bb)">
     <use xlink:href="#mae6d98df39" x="344.717333" y="255.135327" style="stroke: #000000"/>
    </g>
   </g>
   <g id="line2d_87">
    <path d="M 417.099167 89.031768 
L 430.2595 89.031768 
" clip-path="url(#pba18d4e8bb)" style="fill: none; stroke: #000000; stroke-width: 0.5; stroke-linecap: square"/>
   </g>
   <g id="line2d_88">
    <g clip-path="url(#pba18d4e8bb)">
     <use xlink:href="#mae6d98df39" x="423.679333" y="82.553327" style="stroke: #000000"/>
    </g>
   </g>
   <g id="patch_15">
    <path d="M 55.19 313.4 
L 55.19 14.76 
" style="fill: none; stroke: #000000; stroke-width: 0.8; stroke-linejoin: miter; stroke-linecap: square"/>
   </g>
   <g id="patch_16">
    <path d="M 450 313.4 
L 450 14.76 
" style="fill: none; stroke: #000000; stroke-width: 0.8; stroke-linejoin: miter; stroke-linecap: square"/>
   </g>
   <g id="patch_17">
    <path d="M 55.19 313.4 
L 450 313.4 
" style="fill: none; stroke: #000000; stroke-width: 0.8; stroke-linejoin: miter; stroke-linecap: square"/>
   </g>
   <g id="patch_18">
    <path d="M 55.19 14.76 
L 450 14.76 
" style="fill: none; stroke: #000000; stroke-width: 0.8; stroke-linejoin: miter; stroke-linecap: square"/>
   </g>
   <g id="legend_1">
    <g id="patch_19">
     <path d="M 63.59 77.20125 
L 363.26 77.20125 
Q 365.66 77.20125 365.66 74.80125 
L 365.66 23.16 
Q 365.66 20.76 363.26 20.76 
L 63.59 20.76 
Q 61.19 20.76 61.19 23.16 
L 61.19 74.80125 
Q 61.19 77.20125 63.59 77.20125 
z
" style="fill: #ffffff; opacity: 0.8; stroke: #cccccc; stroke-linejoin: miter"/>
    </g>
    <g id="patch_20">
     <path d="M 65.99 34.678125 
L 89.99 34.678125 
L 89.99 26.278125 
L 65.99 26.278125 
z
" style="fill: #1f77b4; stroke: #808080; stroke-width: 0.5; stroke-linejoin: miter"/>
    </g>
    <g id="text_12">
     <!-- scores on real-world scenarios -->
     <g transform="translate(99.59 34.678125)scale(0.12 -0.12)">
      <defs>
       <path id="DejaVuSans-20" transform="scale(0.015625)"/>
       <path id="DejaVuSans-2d" d="M 313 2009 
L 1997 2009 
L 1997 1497 
L 313 1497 
L 313 2009 
z
" transform="scale(0.015625)"/>
       <path id="DejaVuSans-77" d="M 269 3500 
L 844 3500 
L 1563 769 
L 2278 3500 
L 2956 3500 
L 3675 769 
L 4391 3500 
L 4966 3500 
L 4050 0 
L 3372 0 
L 2619 2869 
L 1863 0 
L 1184 0 
L 269 3500 
z
" transform="scale(0.015625)"/>
       <path id="DejaVuSans-64" d="M 2906 2969 
L 2906 4863 
L 3481 4863 
L 3481 0 
L 2906 0 
L 2906 525 
Q 2725 213 2448 61 
Q 2172 -91 1784 -91 
Q 1150 -91 751 415 
Q 353 922 353 1747 
Q 353 2572 751 3078 
Q 1150 3584 1784 3584 
Q 2172 3584 2448 3432 
Q 2725 3281 2906 2969 
z
M 947 1747 
Q 947 1113 1208 752 
Q 1469 391 1925 391 
Q 2381 391 2643 752 
Q 2906 1113 2906 1747 
Q 2906 2381 2643 2742 
Q 2381 3103 1925 3103 
Q 1469 3103 1208 2742 
Q 947 2381 947 1747 
z
" transform="scale(0.015625)"/>
      </defs>
      <use xlink:href="#DejaVuSans-73"/>
      <use xlink:href="#DejaVuSans-63" x="52.099609"/>
      <use xlink:href="#DejaVuSans-6f" x="107.080078"/>
      <use xlink:href="#DejaVuSans-72" x="168.261719"/>
      <use xlink:href="#DejaVuSans-65" x="207.125"/>
      <use xlink:href="#DejaVuSans-73" x="268.648438"/>
      <use xlink:href="#DejaVuSans-20" x="320.748047"/>
      <use xlink:href="#DejaVuSans-6f" x="352.535156"/>
      <use xlink:href="#DejaVuSans-6e" x="413.716797"/>
      <use xlink:href="#DejaVuSans-20" x="477.095703"/>
      <use xlink:href="#DejaVuSans-72" x="508.882812"/>
      <use xlink:href="#DejaVuSans-65" x="547.746094"/>
      <use xlink:href="#DejaVuSans-61" x="609.269531"/>
      <use xlink:href="#DejaVuSans-6c" x="670.548828"/>
      <use xlink:href="#DejaVuSans-2d" x="698.332031"/>
      <use xlink:href="#DejaVuSans-77" x="734.416016"/>
      <use xlink:href="#DejaVuSans-6f" x="816.203125"/>
      <use xlink:href="#DejaVuSans-72" x="877.384766"/>
      <use xlink:href="#DejaVuSans-6c" x="918.498047"/>
      <use xlink:href="#DejaVuSans-64" x="946.28125"/>
      <use xlink:href="#DejaVuSans-20" x="1009.757812"/>
      <use xlink:href="#DejaVuSans-73" x="1041.544922"/>
      <use xlink:href="#DejaVuSans-63" x="1093.644531"/>
      <use xlink:href="#DejaVuSans-65" x="1148.625"/>
      <use xlink:href="#DejaVuSans-6e" x="1210.148438"/>
      <use xlink:href="#DejaVuSans-61" x="1273.527344"/>
      <use xlink:href="#DejaVuSans-72" x="1334.806641"/>
      <use xlink:href="#DejaVuSans-69" x="1375.919922"/>
      <use xlink:href="#DejaVuSans-6f" x="1403.703125"/>
      <use xlink:href="#DejaVuSans-73" x="1464.884766"/>
     </g>
    </g>
    <g id="patch_21">
     <path d="M 65.99 52.291875 
L 89.99 52.291875 
L 89.99 43.891875 
L 65.99 43.891875 
z
" style="fill: #ff7f0e; stroke: #808080; stroke-width: 0.5; stroke-linejoin: miter"/>
    </g>
    <g id="text_13">
     <!-- scores on non-directional derived scenarios -->
     <g transform="translate(99.59 52.291875)scale(0.12 -0.12)">
      <defs>
       <path id="DejaVuSans-76" d="M 191 3500 
L 800 3500 
L 1894 563 
L 2988 3500 
L 3597 3500 
L 2284 0 
L 1503 0 
L 191 3500 
z
" transform="scale(0.015625)"/>
      </defs>
      <use xlink:href="#DejaVuSans-73"/>
      <use xlink:href="#DejaVuSans-63" x="52.099609"/>
      <use xlink:href="#DejaVuSans-6f" x="107.080078"/>
      <use xlink:href="#DejaVuSans-72" x="168.261719"/>
      <use xlink:href="#DejaVuSans-65" x="207.125"/>
      <use xlink:href="#DejaVuSans-73" x="268.648438"/>
      <use xlink:href="#DejaVuSans-20" x="320.748047"/>
      <use xlink:href="#DejaVuSans-6f" x="352.535156"/>
      <use xlink:href="#DejaVuSans-6e" x="413.716797"/>
      <use xlink:href="#DejaVuSans-20" x="477.095703"/>
      <use xlink:href="#DejaVuSans-6e" x="508.882812"/>
      <use xlink:href="#DejaVuSans-6f" x="572.261719"/>
      <use xlink:href="#DejaVuSans-6e" x="633.443359"/>
      <use xlink:href="#DejaVuSans-2d" x="696.822266"/>
      <use xlink:href="#DejaVuSans-64" x="732.90625"/>
      <use xlink:href="#DejaVuSans-69" x="796.382812"/>
      <use xlink:href="#DejaVuSans-72" x="824.166016"/>
      <use xlink:href="#DejaVuSans-65" x="863.029297"/>
      <use xlink:href="#DejaVuSans-63" x="924.552734"/>
      <use xlink:href="#DejaVuSans-74" x="979.533203"/>
      <use xlink:href="#DejaVuSans-69" x="1018.742188"/>
      <use xlink:href="#DejaVuSans-6f" x="1046.525391"/>
      <use xlink:href="#DejaVuSans-6e" x="1107.707031"/>
      <use xlink:href="#DejaVuSans-61" x="1171.085938"/>
      <use xlink:href="#DejaVuSans-6c" x="1232.365234"/>
      <use xlink:href="#DejaVuSans-20" x="1260.148438"/>
      <use xlink:href="#DejaVuSans-64" x="1291.935547"/>
      <use xlink:href="#DejaVuSans-65" x="1355.412109"/>
      <use xlink:href="#DejaVuSans-72" x="1416.935547"/>
      <use xlink:href="#DejaVuSans-69" x="1458.048828"/>
      <use xlink:href="#DejaVuSans-76" x="1485.832031"/>
      <use xlink:href="#DejaVuSans-65" x="1545.011719"/>
      <use xlink:href="#DejaVuSans-64" x="1606.535156"/>
      <use xlink:href="#DejaVuSans-20" x="1670.011719"/>
      <use xlink:href="#DejaVuSans-73" x="1701.798828"/>
      <use xlink:href="#DejaVuSans-63" x="1753.898438"/>
      <use xlink:href="#DejaVuSans-65" x="1808.878906"/>
      <use xlink:href="#DejaVuSans-6e" x="1870.402344"/>
      <use xlink:href="#DejaVuSans-61" x="1933.78125"/>
      <use xlink:href="#DejaVuSans-72" x="1995.060547"/>
      <use xlink:href="#DejaVuSans-69" x="2036.173828"/>
      <use xlink:href="#DejaVuSans-6f" x="2063.957031"/>
      <use xlink:href="#DejaVuSans-73" x="2125.138672"/>
     </g>
    </g>
    <g id="patch_22">
     <path d="M 65.99 69.905625 
L 89.99 69.905625 
L 89.99 61.505625 
L 65.99 61.505625 
z
" style="fill: #2ca02c; stroke: #808080; stroke-width: 0.5; stroke-linejoin: miter"/>
    </g>
    <g id="text_14">
     <!-- scores on directional derived scenarios -->
     <g transform="translate(99.59 69.905625)scale(0.12 -0.12)">
      <use xlink:href="#DejaVuSans-73"/>
      <use xlink:href="#DejaVuSans-63" x="52.099609"/>
      <use xlink:href="#DejaVuSans-6f" x="107.080078"/>
      <use xlink:href="#DejaVuSans-72" x="168.261719"/>
      <use xlink:href="#DejaVuSans-65" x="207.125"/>
      <use xlink:href="#DejaVuSans-73" x="268.648438"/>
      <use xlink:href="#DejaVuSans-20" x="320.748047"/>
      <use xlink:href="#DejaVuSans-6f" x="352.535156"/>
      <use xlink:href="#DejaVuSans-6e" x="413.716797"/>
      <use xlink:href="#DejaVuSans-20" x="477.095703"/>
      <use xlink:href="#DejaVuSans-64" x="508.882812"/>
      <use xlink:href="#DejaVuSans-69" x="572.359375"/>
      <use xlink:href="#DejaVuSans-72" x="600.142578"/>
      <use xlink:href="#DejaVuSans-65" x="639.005859"/>
      <use xlink:href="#DejaVuSans-63" x="700.529297"/>
      <use xlink:href="#DejaVuSans-74" x="755.509766"/>
      <use xlink:href="#DejaVuSans-69" x="794.71875"/>
      <use xlink:href="#DejaVuSans-6f" x="822.501953"/>
      <use xlink:href="#DejaVuSans-6e" x="883.683594"/>
      <use xlink:href="#DejaVuSans-61" x="947.0625"/>
      <use xlink:href="#DejaVuSans-6c" x="1008.341797"/>
      <use xlink:href="#DejaVuSans-20" x="1036.125"/>
      <use xlink:href="#DejaVuSans-64" x="1067.912109"/>
      <use xlink:href="#DejaVuSans-65" x="1131.388672"/>
      <use xlink:href="#DejaVuSans-72" x="1192.912109"/>
      <use xlink:href="#DejaVuSans-69" x="1234.025391"/>
      <use xlink:href="#DejaVuSans-76" x="1261.808594"/>
      <use xlink:href="#DejaVuSans-65" x="1320.988281"/>
      <use xlink:href="#DejaVuSans-64" x="1382.511719"/>
      <use xlink:href="#DejaVuSans-20" x="1445.988281"/>
      <use xlink:href="#DejaVuSans-73" x="1477.775391"/>
      <use xlink:href="#DejaVuSans-63" x="1529.875"/>
      <use xlink:href="#DejaVuSans-65" x="1584.855469"/>
      <use xlink:href="#DejaVuSans-6e" x="1646.378906"/>
      <use xlink:href="#DejaVuSans-61" x="1709.757812"/>
      <use xlink:href="#DejaVuSans-72" x="1771.037109"/>
      <use xlink:href="#DejaVuSans-69" x="1812.150391"/>
      <use xlink:href="#DejaVuSans-6f" x="1839.933594"/>
      <use xlink:href="#DejaVuSans-73" x="1901.115234"/>
     </g>
    </g>
   </g>
  </g>
 </g>
 <defs>
  <clipPath id="pba18d4e8bb">
   <rect x="55.19" y="14.76" width="394.81" height="298.64"/>
  </clipPath>
 </defs>
</svg>
